<svg width="75" height="75" viewBox="0 0 75 75" fill="none" xmlns="http://www.w3.org/2000/svg">
<path d="M51.8875 34.525C53.7908 31.2815 54.6128 27.5166 54.2344 23.775C53.675 18.2 50.5625 13.2719 45.475 9.90002L42.0219 15.1063C45.5188 17.425 47.6469 20.7282 48.0157 24.4C48.1857 26.1066 47.9733 27.8296 47.3938 29.4437C46.8143 31.0579 45.8823 32.5225 44.6657 33.7313L40.9407 37.4563L45.9969 38.9407C59.2219 42.8157 59.375 56.1157 59.375 56.25H65.625C65.625 50.6594 62.6376 39.7344 51.8875 34.525Z" fill="white"/>
<path d="M29.6875 37.5C36.5813 37.5 42.1875 31.8938 42.1875 25C42.1875 18.1062 36.5813 12.5 29.6875 12.5C22.7937 12.5 17.1875 18.1062 17.1875 25C17.1875 31.8938 22.7937 37.5 29.6875 37.5ZM29.6875 18.75C33.1344 18.75 35.9375 21.5531 35.9375 25C35.9375 28.4469 33.1344 31.25 29.6875 31.25C26.2406 31.25 23.4375 28.4469 23.4375 25C23.4375 21.5531 26.2406 18.75 29.6875 18.75ZM34.375 40.625H25C14.6594 40.625 6.25 49.0344 6.25 59.375V62.5H12.5V59.375C12.5 52.4813 18.1062 46.875 25 46.875H34.375C41.2687 46.875 46.875 52.4813 46.875 59.375V62.5H53.125V59.375C53.125 49.0344 44.7156 40.625 34.375 40.625Z" fill="white"/>
</svg>
