<svg width="75" height="75" viewBox="0 0 75 75" fill="none" xmlns="http://www.w3.org/2000/svg">
<path d="M65.625 35.9375C65.6358 40.0621 64.6721 44.1309 62.8125 47.8125C60.6076 52.2242 57.218 55.9349 53.0233 58.529C48.8286 61.1231 43.9945 62.4981 39.0625 62.5C34.9379 62.5107 30.8691 61.5471 27.1875 59.6875L9.375 65.625L15.3125 47.8125C13.4529 44.1309 12.4892 40.0621 12.5 35.9375C12.5019 31.0055 13.8769 26.1714 16.471 21.9767C19.0651 17.782 22.7758 14.3924 27.1875 12.1875C30.8691 10.3279 34.9379 9.36421 39.0625 9.37497H40.625C47.1386 9.73432 53.2908 12.4836 57.9036 17.0964C62.5164 21.7092 65.2657 27.8614 65.625 34.375V35.9375Z" stroke="white" stroke-width="4" stroke-linecap="round" stroke-linejoin="round"/>
</svg>
