<?xml version="1.0" encoding="UTF-8" standalone="no"?>
<!-- Created with Inkscape (http://www.inkscape.org/) -->

<svg
   width="10in"
   height="10in"
   viewBox="0 0 253.99997 253.99996"
   version="1.1"
   id="svg1"
   xml:space="preserve"
   xmlns="http://www.w3.org/2000/svg"
   xmlns:svg="http://www.w3.org/2000/svg"><defs
     id="defs1" /><g
     id="layer1"
     transform="translate(9.4108869,13.444124)"><g
       id="g27"
       transform="matrix(1.4335396,0,0,1.4316556,348.42462,-10.099138)"><path
         style="fill:#f09b09"
         d="m -135.13609,129.33541 c 0,-0.3699 -0.1187,-0.98475 -0.26378,-1.36634 -0.19347,-0.50886 -0.18324,-0.64403 0.0384,-0.50707 0.20814,0.12863 0.26047,-0.0313 0.16818,-0.51405 -0.0737,-0.38543 -0.0463,-0.70078 0.0609,-0.70078 0.10715,0 0.19495,-0.26789 0.1951,-0.59531 3.5e-4,-0.74016 1.09259,-3.10885 1.43354,-3.10885 0.13808,0 0.18337,-0.10953 0.10063,-0.2434 -0.0827,-0.13387 0.16442,-0.49106 0.54923,-0.79375 0.38482,-0.3027 0.60332,-0.55035 0.48557,-0.55035 -0.11775,0 0.0655,-0.29766 0.40731,-0.66146 0.34178,-0.3638 0.71359,-0.66146 0.82624,-0.66146 0.11266,0 0.51384,-0.28638 0.89151,-0.63639 0.37767,-0.35001 1.66372,-1.03462 2.8579,-1.52135 2.0672,-0.84257 2.3297,-0.88465 5.47852,-0.8784 2.88495,0.006 3.51846,0.09 4.96094,0.66011 0.9095,0.35945 1.65121,0.77321 1.64823,0.91947 -0.003,0.14627 -0.66508,0.67264 -1.47135,1.16972 -1.3327,0.82163 -3.50205,2.93994 -3.58339,3.49909 -0.0182,0.12503 -0.048,0.37616 -0.0661,0.55806 -0.0182,0.1819 -0.39026,0.37793 -0.82682,0.43562 -0.79375,0.1049 -0.79375,0.1049 -0.13229,0.32702 0.47192,0.15848 0.30134,0.18673 -0.59532,0.0986 -0.77278,-0.076 -1.25677,-0.0176 -1.25677,0.15162 0,0.15132 -0.12012,0.20089 -0.26695,0.11015 -0.40248,-0.24875 -1.35406,0.13005 -1.15122,0.45826 0.10778,0.1744 0.053,0.20978 -0.14004,0.0905 -0.39591,-0.24469 -1.14259,0.34035 -0.91153,0.71421 0.0943,0.15266 0.0435,0.19715 -0.11402,0.0998 -0.15636,-0.0966 -0.51613,0.11906 -0.79951,0.47931 -0.28337,0.36025 -0.59056,0.57967 -0.68264,0.48759 -0.1611,-0.1611 -0.27542,0.33449 -0.18771,0.81379 0.0233,0.12735 -0.15286,0.44727 -0.39146,0.71093 -0.23861,0.26366 -0.35562,0.60595 -0.26001,0.76064 0.25285,0.40912 -0.57058,0.34517 -0.96287,-0.0748 -0.23013,-0.24635 -0.60013,-0.29568 -1.20106,-0.16015 -0.56862,0.12824 -0.86848,0.0967 -0.86848,-0.0914 0,-0.15801 -0.14882,-0.096 -0.33073,0.1378 -0.18568,0.23866 -0.85287,0.47317 -1.52135,0.53473 -0.65484,0.0603 -1.39898,0.20217 -1.65364,0.31525 -0.37346,0.16583 -0.46303,0.0755 -0.46303,-0.46694 z M -139.515,44.204837 c -0.0972,-0.15734 0.13385,-0.61034 0.51355,-1.00666 0.3797,-0.39632 0.69036,-0.9659 0.69036,-1.26574 0,-1.09928 0.93955,-1.86362 2.53602,-2.06308 2.2132,-0.27652 3.89483,-0.8301 7.0635,-2.32522 1.98158,-0.93501 2.74909,-1.41825 2.51354,-1.58257 -0.22601,-0.15767 -0.15356,-0.18484 0.21726,-0.0815 0.56635,0.15788 5.16963,-2.05287 7.38114,-3.54483 2.3242,-1.56798 3.55846,-2.49803 3.45389,-2.6026 -0.10639,-0.1064 -1.73064,0.71755 -1.99868,1.01389 -0.41482,0.45862 -2.06857,1.27198 -2.25079,1.10701 -0.11841,-0.10722 -0.13799,-0.0596 -0.0435,0.10582 0.19472,0.34088 -0.43905,0.97875 -0.70662,0.71119 -0.0957,-0.0958 -0.17409,-0.0376 -0.17409,0.12921 0,0.16681 -0.44648,0.53053 -0.99219,0.80826 -0.84323,0.42914 -1.0434,0.44981 -1.33335,0.13767 -0.48823,-0.52563 -0.8313,-0.45489 -1.1058,0.22802 -0.23928,0.59531 -0.23928,0.59531 -0.25606,0.0156 -0.0194,-0.67261 -0.43845,-1.03331 -0.63474,-0.54643 -0.0737,0.18281 -0.1434,-0.008 -0.15489,-0.42353 -0.017,-0.6168 -0.1061,-0.71894 -0.48391,-0.55499 -0.84204,0.36538 -2.18281,0.45704 -2.18281,0.14922 0,-0.16144 0.12376,-0.29353 0.27502,-0.29353 0.15865,0 0.13066,-0.156 -0.0661,-0.36869 -0.24545,-0.26526 -0.47903,-0.2955 -0.83259,-0.10778 -0.75759,0.40223 -0.99737,-0.10853 -0.39737,-0.84644 0.29581,-0.36381 0.46095,-0.51263 0.36698,-0.33073 -0.20856,0.40369 -0.006,0.41946 0.67892,0.0529 0.28555,-0.15282 0.43792,-0.40934 0.3386,-0.57005 -0.10896,-0.17629 -0.0594,-0.21731 0.12488,-0.1034 0.168,0.10383 0.30546,0.0557 0.30546,-0.10703 0,-0.16269 0.11906,-0.22222 0.26458,-0.13229 0.14552,0.0899 0.26459,0.0304 0.26459,-0.13229 0,-0.1627 0.11906,-0.22223 0.26458,-0.13229 0.14552,0.0899 0.26458,0.0612 0.26458,-0.064 0,-0.22289 2.02101,-1.30751 2.48396,-1.33308 0.12926,-0.007 0.30785,-0.12468 0.39688,-0.26121 0.23229,-0.35623 7.17252,-4.3039 7.17738,-4.08256 0.002,0.10151 0.0926,0.0453 0.20094,-0.12496 0.10829,-0.17023 0.35666,-0.34882 0.55193,-0.39687 0.19526,-0.048 0.70015,-0.38176 1.12197,-0.74159 0.60705,-0.51784 0.76694,-0.87276 0.76694,-1.70244 0,-1.26062 -0.76648,-4.12562 -1.10374,-4.12562 -0.13214,0 -0.71176,0.24054 -1.28805,0.53454 -0.57628,0.294 -1.04779,0.46409 -1.04779,0.37798 0,-0.0861 -0.18204,0.0255 -0.40453,0.24796 -0.22249,0.22249 -0.59921,0.32983 -0.83716,0.23852 -0.31258,-0.11995 -0.37253,-0.0688 -0.21604,0.18441 0.14455,0.2339 0.11439,0.28728 -0.0907,0.16053 -0.28848,-0.1783 -1.91832,0.76673 -2.11219,1.22471 -0.0488,0.11531 -0.19764,0.14234 -0.33073,0.0601 -0.13309,-0.0823 -0.24198,-0.0164 -0.24198,0.14626 0,0.16269 -0.11907,0.22223 -0.26459,0.13229 -0.14552,-0.0899 -0.26458,-0.0412 -0.26458,0.10837 0,0.14954 -0.19813,0.19587 -0.44028,0.10295 -0.31968,-0.12268 -0.38096,-0.073 -0.2237,0.18147 0.14396,0.23294 0.11434,0.28725 -0.0883,0.16198 -0.35853,-0.22159 -1.92592,0.63393 -1.73308,0.94595 0.0724,0.11716 -0.0727,0.13461 -0.32238,0.0388 -0.33241,-0.12757 -0.39601,-0.0804 -0.23744,0.1762 0.14151,0.22896 0.11413,0.28711 -0.079,0.16777 -0.16255,-0.10046 -0.92508,0.14308 -1.69453,0.54121 -0.76944,0.39813 -1.48827,0.70005 -1.59742,0.67094 -0.10914,-0.0291 -0.19843,0.0534 -0.19843,0.18335 0,0.42151 -0.84952,0.57579 -1.2737,0.23131 -0.34949,-0.28381 -0.38624,-0.2642 -0.23935,0.12773 0.0954,0.25466 0.0582,0.46302 -0.0828,0.46302 -0.14095,0 -0.25628,-0.35719 -0.25628,-0.79375 0,-0.43656 -0.11906,-0.79375 -0.26458,-0.79375 -0.38722,0 -0.32582,-2.04786 0.0661,-2.20602 0.1819,-0.0734 -0.0787,-0.14285 -0.57906,-0.15434 -0.90979,-0.0209 -0.90979,-0.0209 -0.34179,-0.55006 0.31239,-0.29104 0.67929,-0.52916 0.81533,-0.52916 0.13604,0 0.32164,-0.19362 0.41244,-0.43026 0.14864,-0.38733 0.0964,-0.38524 -0.52363,0.021 -0.37881,0.2482 -2.25608,1.25191 -4.1717,2.23047 -1.91562,0.97856 -5.03076,2.65458 -6.92253,3.72448 -1.89177,1.06991 -5.3256,3.00257 -7.63072,4.2948 -2.30513,1.29222 -4.46699,2.53024 -4.80415,2.75116 -0.37748,0.24733 -0.67501,0.30132 -0.7744,0.14051 -0.52698,-0.85266 0.97185,-7.74035 1.80537,-8.29637 0.16027,-0.10691 0.20039,-0.19621 0.0892,-0.19844 -0.46032,-0.009 1.49403,-3.26654 3.19717,-5.32873 3.08447,-3.73471 5.17032,-5.26724 11.29258,-8.2969496 6.56052,-3.24659 14.9912,-3.87889 26.72291,-2.00421 5.21045,0.83261 6.91364,1.07376 7.58372,1.07376 0.70617,0 0.75087,0.0666 0.75427,1.12448 0.002,0.6184596 0.0719,1.4221296 0.15525,1.7859296 0.1189,0.5187 0.0904,0.57581 -0.13186,0.26459 -0.27866,-0.39013 -0.37732,0.73937 -0.42759,4.89513 -0.009,0.72779 -0.10224,1.46278 -0.20763,1.63331 -0.1054,0.17054 -0.21006,1.06335 -0.23258,1.98404 -0.0225,0.92069 -0.14737,1.74495 -0.27743,1.83171 -0.13006,0.0867 -0.25909,0.75876 -0.28673,1.49336 -0.0276,0.7346 -0.15681,1.27101 -0.28705,1.19201 -0.13024,-0.079 -0.1772,0.16812 -0.10436,0.54915 0.0728,0.38102 0.0436,0.63789 -0.0649,0.5708 -0.10855,-0.0671 -0.27045,0.26769 -0.3598,0.74394 -0.0893,0.47624 -0.40005,1.06935 -0.69047,1.31801 -0.29041,0.24866 -0.52802,0.64461 -0.52802,0.87988 0,0.2618 -0.14648,0.37156 -0.37753,0.2829 -0.20765,-0.0797 -0.52227,0.0295 -0.69917,0.24267 -0.17689,0.21315 -0.38269,0.32648 -0.45732,0.25185 -0.0746,-0.0746 -1.101,0.79105 -2.28082,1.92373 -2.68761,2.5802 -7.18805,5.59224 -12.14208,8.12639 -4.56969,2.33754 -6.37373,3.0729 -9.70767,3.95699 -2.70243,0.71663 -7.20628,0.94427 -7.55391,0.38179 z"
         id="path26" /><path
         style="fill:#1594cc"
         d="m -125.68774,153.36696 c 0.10117,-0.29104 0.51699,-1.02268 0.92405,-1.62587 0.40706,-0.60319 0.7401,-1.26398 0.7401,-1.46844 0,-0.38597 0.50185,-1.00673 0.81388,-1.00673 0.42068,0 -0.76403,2.48989 -1.67179,3.51356 -0.55613,0.62716 -0.90956,0.88468 -0.80624,0.58748 z m -62.62959,-36.11562 c 0,-0.14552 0.12081,-0.26458 0.26847,-0.26458 0.14766,0 0.51751,-0.38696 0.8219,-0.8599 0.30439,-0.47294 0.48123,-0.6418 0.39299,-0.37524 -0.0882,0.26657 -0.16045,0.58549 -0.16045,0.70871 0,0.30115 -0.76991,1.05559 -1.07723,1.05559 -0.13512,0 -0.24568,-0.11906 -0.24568,-0.26458 z m -27.94872,-31.154693 c 0.10929,-0.1819 0.0854,-0.33073 -0.0532,-0.33073 -0.13854,0 -0.3228,-0.18477 -0.40946,-0.41061 -0.0904,-0.23546 -0.046,-0.34167 0.10398,-0.24897 0.33223,0.20533 0.33062,-0.14705 -0.003,-0.66333 -0.22798,-0.35278 -0.25797,-0.35278 -0.26991,0 -0.008,0.24035 -0.15498,0.14125 -0.37235,-0.25126 -0.19741,-0.35647 -0.2999,-0.80195 -0.22776,-0.98995 0.0722,-0.18801 -0.0697,-0.41894 -0.31534,-0.51317 -0.35534,-0.13636 -0.37445,-0.21702 -0.0936,-0.39506 0.26775,-0.16973 0.23742,-0.22469 -0.12573,-0.22776 -0.26325,-0.002 -0.40505,-0.12311 -0.31511,-0.26864 0.0899,-0.14552 0.0416,-0.26458 -0.10737,-0.26458 -0.14899,0 -0.40602,-0.25249 -0.57118,-0.56109 -0.17236,-0.32207 -0.18684,-0.49098 -0.034,-0.39651 0.15929,0.0984 0.21066,-0.0482 0.12783,-0.36495 -0.0762,-0.29124 -0.25068,-0.52953 -0.38781,-0.52953 -0.13714,0 -0.16439,0.13746 -0.0606,0.30546 0.11432,0.18497 0.0729,0.23381 -0.10512,0.12382 -0.16165,-0.0999 -0.22514,-0.36086 -0.14108,-0.5799 0.18334,-0.47779 -0.66236,-1.49453 -1.04593,-1.25747 -0.14856,0.0918 -0.19179,0.0402 -0.0961,-0.11466 0.24498,-0.39639 -0.0797,-1.12309 -0.50184,-1.12309 -0.19412,0 -0.43791,-0.13745 -0.54174,-0.30546 -0.12887,-0.20852 -0.0709,-0.23277 0.18282,-0.0764 0.20439,0.12599 -0.0615,-0.2173 -0.59085,-0.76285 -0.9024,-0.93001 -1.33758,-1.09435 -3.23404,-1.22129 -0.12526,-0.008 0.0425,-0.23409 0.37283,-0.50156 0.66119,-0.5354 0.51492,-1.10119 -0.28468,-1.10119 -0.36254,0 -0.45753,-0.12435 -0.3363,-0.44027 0.10757,-0.28032 0.0646,-0.37578 -0.1183,-0.26275 -0.20038,0.12384 -0.2168,-0.0431 -0.0543,-0.55191 0.12812,-0.40119 0.41393,-1.52057 0.63512,-2.4875 0.51745,-2.26198 0.25953,-3.04385 -1.38934,-4.21168 -0.6837,-0.48425 -1.82617,-1.38406 -2.53882,-1.9996 -0.71264,-0.61553 -2.04402,-1.49897 -2.95862,-1.9632 -2.83021,-1.43653 -5.20961,-1.32124 -6.59005,0.31932 -0.60113,0.71439 -0.6711,1.01744 -0.63735,2.76046 0.026,1.34463 0.13912,1.95797 0.361,1.95797 0.17771,0 0.54991,0.26789 0.82713,0.59531 0.50403,0.59531 0.50403,0.59531 -0.0929,0.0898 -0.32831,-0.27803 -0.65861,-0.44382 -0.73399,-0.36844 -0.0754,0.0754 0.0444,0.28768 0.2662,0.47175 0.52227,0.43345 0.52009,0.82728 -0.003,0.62637 -0.2237,-0.0858 -0.63189,0.0477 -0.90708,0.29674 -0.3177,0.28752 -0.70044,0.38931 -1.04848,0.27884 -0.38365,-0.12176 -0.54813,-0.058 -0.54813,0.21243 0,0.53213 -0.69447,0.7502 -1.75531,0.55118 -0.85876,-0.1611 -1.04946,-3.1e-4 -0.91521,0.77167 0.0209,0.1201 -0.19704,0.14378 -0.4843,0.0526 -0.33718,-0.10702 -0.70736,0.0193 -1.04452,0.35648 -0.43363,0.43362 -0.54765,0.45604 -0.67196,0.13208 -0.0842,-0.21933 -0.0352,-0.31938 0.11183,-0.22851 0.14386,0.0889 0.26156,-0.017 0.26156,-0.23523 0,-0.21828 -0.11907,-0.47046 -0.26459,-0.56039 -0.14552,-0.0899 -0.26458,-0.40736 -0.26458,-0.70538 0,-0.38301 -0.12142,-0.49527 -0.41418,-0.38293 -0.31794,0.12201 -0.37527,0.0364 -0.24675,-0.36857 0.10551,-0.33242 0.0467,-0.5275 -0.15909,-0.5275 -0.17958,0 -0.24817,-0.0783 -0.15241,-0.17409 0.0957,-0.0958 0.029,-0.34892 -0.14833,-0.56259 -0.5818,-0.70102 -0.37812,-4.97639 0.32413,-6.80394 2.02273,-5.26403 6.13511,-7.85044 12.44659,-7.82807 4.0353,0.0143 5.67719,0.5057 8.6481,2.58826 2.78836,1.95459 4.9332,5.00555 5.7656,8.20137 0.43356,1.66454 0.53488,5.25493 0.15493,5.48975 -0.40468,0.25011 -0.007,1.1568 0.71481,1.62976 0.37641,0.24663 1.22718,0.98837 1.8906,1.64832 0.66341,0.65994 0.96933,1.02924 0.67982,0.82067 -0.32944,-0.23735 -0.23926,-0.0328 0.24104,0.54681 0.42208,0.50932 0.87616,0.89333 1.00907,0.85334 0.13291,-0.04 0.16776,0.0468 0.0775,0.19297 -0.23439,0.37924 0.33521,1.33494 0.79563,1.33494 0.21316,0 0.37346,0.0893 0.35623,0.19844 -0.0829,0.52524 0.0575,0.87496 0.29288,0.72948 0.15536,-0.096 0.19082,0.0227 0.0873,0.29237 -0.11741,0.30597 -0.0743,0.39224 0.13229,0.26458 0.20657,-0.12766 0.24971,-0.0414 0.1323,0.26458 -0.12756,0.33242 -0.0804,0.39602 0.1762,0.23745 0.23773,-0.14693 0.28741,-0.11461 0.15448,0.10048 -0.20705,0.33501 0.27136,1.08762 0.69136,1.08762 0.13629,0 0.19184,-0.0906 0.12343,-0.20124 -0.1996,-0.32297 1.2623,-2.30092 1.77336,-2.39934 0.40868,-0.0787 2.1921,0.58988 3.34687,1.2547 0.47079,0.27104 0.47846,0.1453 -0.24353,3.99171 -0.74984,3.99481 -0.67745,3.83186 -1.44624,3.25559 -0.35033,-0.2626 -0.58695,-0.55984 -0.52582,-0.66052 0.25523,-0.42038 -1.46653,-1.72194 -2.85595,-2.15897 -1.26662,-0.3984 -1.59008,-0.41714 -2.11452,-0.12249 -0.90898,0.51069 -0.92718,0.56967 -0.89439,2.89828 0.0165,1.17596 -0.0156,2.00096 -0.0715,1.83332 -0.074,-0.22189 -0.21636,-0.21183 -0.52353,0.037 -0.31918,0.25854 -0.37355,0.26123 -0.22324,0.011 z m 25.25892,-14.55999 c 0.28401,-0.20053 0.26532,-0.28279 -0.0957,-0.42134 -0.37162,-0.14261 -0.41827,-0.38738 -0.27169,-1.42588 0.0973,-0.68955 0.23393,-1.45015 0.30358,-1.69023 0.16434,-0.56649 2.31347,-1.57285 6.2173,-2.91134 1.7221,-0.59045 4.39314,-1.77537 5.93564,-2.63316 1.5425,-0.85779 2.85436,-1.55962 2.91524,-1.55962 0.11276,0 3.30976,-1.48192 5.94171,-2.75419 1.76968,-0.85546 4.29654,-1.53981 4.87122,-1.31928 0.24997,0.0959 0.60998,-0.0539 0.88408,-0.36798 0.57242,-0.65584 1.81188,-0.9785 1.98835,-0.5176 0.0857,0.22394 0.60096,0.29993 1.61508,0.23821 1.37171,-0.0835 1.48918,-0.14088 1.48918,-0.7276 0,-0.71479 0.38906,-0.85455 0.63012,-0.22636 0.0867,0.22584 0.0478,0.34276 -0.0864,0.25982 -0.1342,-0.0829 -0.23362,0.21408 -0.22094,0.66002 0.0127,0.44595 -0.0845,0.90948 -0.216,1.03007 -0.13148,0.12059 -1.90592,1.08328 -3.94322,2.13931 -2.03729,1.05604 -4.74874,2.61235 -6.02545,3.45848 -4.44871,2.94834 -13.56197,7.19954 -17.81834,8.31199 -1.95113,0.50995 -4.60669,0.80475 -4.11371,0.45668 z m -42.81853,-1.39677 c 0,-0.15411 -0.12013,-0.20595 -0.26695,-0.11521 -0.44345,0.27406 -1.37244,-0.14607 -1.21725,-0.5505 0.19092,-0.49752 -0.79386,-0.99068 -1.65698,-0.82977 -0.38241,0.0713 -0.93341,0.0365 -1.22445,-0.0773 -1.13834,-0.44508 0.45899,-0.62585 2.36112,-0.26721 1.02972,0.19416 2.18827,0.36367 2.57455,0.3767 0.38629,0.013 0.65432,0.10139 0.59563,0.19635 -0.13107,0.21208 1.46646,0.79308 1.73104,0.62956 0.10455,-0.0646 0.19009,0.0304 0.19009,0.21106 0,0.3977 -1.02801,0.45261 -1.28663,0.0687 -0.11211,-0.16641 -0.25263,-0.0951 -0.35904,0.18219 -0.18835,0.49082 -1.44113,0.64331 -1.44113,0.1754 z m -2.64584,-0.24897 c 0,-0.14552 -0.23812,-0.26458 -0.52916,-0.26458 -0.29105,0 -0.52917,-0.12697 -0.52917,-0.28216 0,-0.48216 1.44295,-0.15548 1.53849,0.34831 0.0483,0.25466 -0.04,0.46302 -0.19617,0.46302 -0.15619,0 -0.28399,-0.11906 -0.28399,-0.26459 z m 27.05088,-10.11921 c -0.12848,-1.71795 -0.0685,-2.3976 0.3327,-3.77141 0.68601,-2.34898 1.74127,-4.89479 2.02892,-4.89479 0.13864,0 0.18441,-0.10946 0.10173,-0.24325 -0.0827,-0.13379 0.0378,-0.43145 0.26786,-0.66146 0.23002,-0.23001 0.34515,-0.41821 0.25587,-0.41821 -0.50512,0 3.54626,-5.92042 4.23126,-6.18327 0.21516,-0.0826 0.3912,-0.30675 0.3912,-0.49819 0,-0.19144 0.65484,-0.99478 1.45521,-1.7852 0.80036,-0.79043 1.4552,-1.34776 1.4552,-1.23853 0,0.10923 0.36919,-0.22187 0.82041,-0.73578 0.45122,-0.51392 0.92747,-0.86822 1.05833,-0.78734 0.13086,0.0809 0.23793,0.0323 0.23793,-0.10801 0,-0.29627 2.33548,-1.71645 2.8227,-1.71645 0.18096,0 0.27966,-0.0799 0.21933,-0.17749 -0.12393,-0.20052 3.7,-1.93918 4.26494,-1.93918 0.20127,0 0.36595,-0.10625 0.36595,-0.2361 0,-0.12986 0.11083,-0.1676 0.2463,-0.0839 0.13546,0.0837 0.32228,0.0293 0.41516,-0.12099 0.0929,-0.15027 0.27969,-0.20472 0.41515,-0.121 0.13547,0.0837 0.2463,0.0123 0.2463,-0.15882 0,-0.1891 0.25931,-0.26147 0.66146,-0.18459 0.3638,0.0695 0.66146,0.035 0.66146,-0.0767 0,-0.11172 0.23813,-0.14085 0.52917,-0.0647 0.29104,0.0761 0.52916,0.0166 0.52916,-0.13229 0,-0.14887 0.23813,-0.20841 0.52917,-0.1323 0.29977,0.0784 0.52917,0.008 0.52917,-0.1621 0,-0.1884 0.24673,-0.23855 0.66146,-0.13447 0.40127,0.10072 0.66145,0.053 0.66145,-0.12118 0,-0.15796 0.44649,-0.28966 0.99219,-0.29266 0.5457,-0.003 2.79115,-0.0185 4.98989,-0.0344 3.58999,-0.026 8.31233,0.35452 9.36376,0.75451 0.21828,0.083 0.48387,0.13284 0.59021,0.11067 0.49189,-0.10254 2.84937,0.55958 2.84937,0.80028 0,0.14903 0.17859,0.20243 0.39687,0.11867 0.21829,-0.0838 0.39688,-0.0242 0.39688,0.13229 0,0.15652 0.17859,0.21606 0.39687,0.13229 0.21829,-0.0838 0.39688,-0.0231 0.39688,0.13485 0,0.15792 0.23812,0.22486 0.52917,0.14875 0.29104,-0.0761 0.52916,-0.0177 0.52916,0.12974 0,0.14747 0.16696,0.20406 0.37101,0.12576 0.20405,-0.0783 0.44199,-0.0714 0.52874,0.0154 0.0868,0.0868 0.47224,0.19127 0.85664,0.23225 0.38439,0.041 0.8906,0.1581 1.1249,0.26025 0.2343,0.10216 0.67596,0.16186 0.98145,0.13269 0.52,-0.0497 0.54211,0.028 0.3465,1.21743 -0.11492,0.69876 -0.21604,1.76192 -0.22472,2.36256 -0.0182,1.25775 -0.4856,1.77424 -1.60573,1.77424 -0.4224,0 -0.72073,0.0765 -0.66295,0.16999 0.0578,0.0935 -0.39394,0.30276 -1.00383,0.46505 -1.02586,0.27297 -1.06926,0.26418 -0.57972,-0.11739 0.52917,-0.41245 0.52917,-0.41245 0,-0.21043 -0.29104,0.11112 -0.72759,0.22337 -0.97011,0.24946 -0.56922,0.0612 -1.31111,0.67636 -1.14327,0.94793 0.0713,0.11546 -0.12717,0.14274 -0.44117,0.0606 -0.31399,-0.0821 -0.50519,-0.0412 -0.42488,0.0908 0.0803,0.13207 -0.40709,0.26602 -1.08311,0.29768 -0.77098,0.0361 -1.09282,-0.0271 -0.86343,-0.16952 0.28613,-0.17767 0.24295,-0.26602 -0.19844,-0.40611 -0.43404,-0.13776 -0.56413,-0.39232 -0.56413,-1.10389 0,-0.72236 -0.10137,-0.91453 -0.46302,-0.87775 -0.82814,0.0842 -1.15895,-0.009 -0.99219,-0.27842 0.31564,-0.5107 -0.91112,-0.25407 -4.27663,0.89463 -8.71365,2.97414 -14.4196,5.63236 -23.63691,11.01172 -1.67349,0.97667 -3.9554,2.28466 -5.07092,2.90663 -1.11552,0.62198 -2.66333,1.65848 -3.43958,2.30333 -1.52048,1.2631 -2.8587,2.0821 -3.23042,1.97705 -0.12736,-0.036 -0.43493,0.11862 -0.68351,0.34358 -0.32681,0.29576 -0.45883,0.31713 -0.47677,0.0772 z m 50.76731,-7.40943 c -0.0279,-1.8639 -0.0789,-2.05052 -0.55986,-2.05052 -0.29398,0 -0.52916,0.17639 -0.52916,0.39687 0,0.21829 -0.11907,0.39688 -0.26459,0.39688 -0.14552,0 -0.26458,-0.40884 -0.26458,-0.90852 0,-0.81241 -0.0666,-0.89645 -0.62957,-0.79436 -0.38296,0.0694 -0.77161,-0.0605 -0.99218,-0.33164 -0.31675,-0.38941 -0.30502,-0.42423 0.0927,-0.27522 0.26018,0.0975 0.62875,-0.003 0.85989,-0.23394 0.2225,-0.2225 0.40454,-0.33181 0.40454,-0.24291 0,0.0889 0.16609,0.008 0.3691,-0.17954 0.20301,-0.18764 0.31589,-0.4291 0.25084,-0.53657 -0.065,-0.10747 0.0861,-0.11701 0.33576,-0.0212 0.30597,0.11741 0.39225,0.0743 0.26458,-0.13229 -0.12766,-0.20657 -0.0414,-0.24971 0.26459,-0.1323 0.28993,0.11126 0.39039,0.0713 0.27796,-0.11064 -0.11394,-0.18436 0.0254,-0.2322 0.39484,-0.13558 0.36583,0.0957 0.50839,0.0481 0.39688,-0.13229 -0.11152,-0.18044 0.031,-0.22796 0.39687,-0.13229 0.36583,0.0957 0.50839,0.0481 0.39688,-0.13229 -0.10961,-0.17735 0.022,-0.23033 0.3555,-0.14312 0.60132,0.15725 0.68692,0.66633 0.1988,1.18234 -0.42966,0.45421 -0.56491,1.27567 -0.21004,1.27567 0.1519,0 0.27436,0.20836 0.27213,0.46302 -0.003,0.37911 -0.0475,0.39441 -0.24362,0.0845 -0.17685,-0.27946 -0.28843,-0.11808 -0.42623,0.61644 -0.10266,0.54725 -0.35675,1.06027 -0.56462,1.14005 -0.20788,0.0798 -0.35374,0.39768 -0.32413,0.70648 0.0296,0.30879 -0.0164,0.74003 -0.10231,0.95831 -0.0859,0.21828 -0.20883,0.635 -0.27323,0.92604 -0.0644,0.29105 -0.1309,-0.39356 -0.14778,-1.52135 z"
         id="path25" /><path
         style="fill:#e05d17"
         d="m -125.21421,142.87087 c -5.95343,-1.1271 -10.50497,-7.00117 -10.42076,-13.4487 0.0311,-2.38298 0.39509,-3.56475 0.42271,-1.37253 0.0116,0.9186 0.0828,1.73192 0.15824,1.80738 0.0755,0.0754 0.37769,0.008 0.67163,-0.14883 0.29394,-0.15731 1.01259,-0.28602 1.59701,-0.28602 0.73286,0 1.14627,-0.14368 1.33227,-0.46302 0.14832,-0.25466 0.2733,-0.32673 0.27773,-0.16015 0.005,0.20525 0.28794,0.23973 0.87652,0.10699 0.60093,-0.13553 0.97093,-0.0862 1.20106,0.16015 0.39229,0.41995 1.21572,0.4839 0.96287,0.0748 -0.0956,-0.15469 0.0214,-0.49698 0.26001,-0.76064 0.2386,-0.26366 0.41476,-0.58358 0.39146,-0.71093 -0.0853,-0.46638 0.0246,-0.97687 0.1775,-0.82399 0.0865,0.0865 0.52086,-0.25696 0.96532,-0.76317 0.82292,-0.93725 2.01423,-1.69543 2.63464,-1.67675 0.18913,0.006 -0.0133,0.16686 -0.44988,0.35814 -0.95256,0.41735 -2.40378,1.84823 -2.96749,2.92589 -0.58942,1.12682 -0.49881,3.35383 0.19476,4.78655 1.3338,2.75526 4.78789,3.82933 7.65022,2.37888 2.23139,-1.13073 3.0598,-2.73909 2.87837,-5.58834 -0.0739,-1.16003 -0.2776,-1.92007 -0.64905,-2.42123 -0.8906,-1.20162 -2.64154,-2.38595 -3.85292,-2.6061 -1.09829,-0.19961 -1.11005,-0.21189 -0.34347,-0.35874 0.43656,-0.0836 0.80863,-0.29972 0.82682,-0.48019 0.0182,-0.18047 0.048,-0.42576 0.0661,-0.54509 0.0828,-0.54338 2.06571,-2.51961 3.42622,-3.41472 0.8259,-0.54338 1.5391,-1.07295 1.58488,-1.17682 0.0458,-0.10387 0.22452,-0.13464 0.3972,-0.0684 0.4944,0.18972 4.09774,-2.05613 6.13414,-3.82321 5.59149,-4.852 10.512027,-12.57002 12.586697,-19.742613 0.46301,-1.60073 0.92147,-2.9992 1.01882,-3.10771 0.0973,-0.10851 1.03169,0.22907 2.07633,0.75017 1.04465,0.52111 2.67632,1.08056 3.62594,1.24322 0.94963,0.16267 1.72659,0.39708 1.72659,0.52093 0,1.10787 -2.34154,8.050913 -3.50166,10.382973 -3.40328,6.84125 -9.988317,14.27223 -16.408237,18.5161 -0.83674,0.55313 -1.52006,1.13766 -1.51849,1.29896 0.002,0.1613 0.18017,0.87774 0.39688,1.59209 0.2167,0.71435 0.39401,2.28607 0.39401,3.49271 0,4.35634 -1.00199,6.96335 -3.69836,9.62253 -1.88237,1.85641 -4.27358,3.29087 -6.45328,3.87126 -1.52836,0.40696 -4.66226,0.43437 -6.6494,0.0582 z m 36.883437,-53.798413 c -3.32303,-0.66224 -6.8245,-2.99948 -8.32218,-5.55506 -1.45355,-2.4803 -2.0932,-5.83357 -1.68166,-8.81586 0.66847,-4.84418 4.91083,-9.1725 9.87993,-10.08011 5.86068,-1.07046 11.00984,1.07632 14.15302,5.90066 1.39865,2.14673 1.8727,3.69205 1.86868,6.09161 -0.0104,6.182 -3.85493,11.04459 -9.84987,12.45804 -1.98584,0.46821 -3.70112,0.46842 -6.04792,7.2e-4 z m 5.58273,-7.54015 c 2.31664,-1.18186 3.29525,-4.31084 2.11243,-6.75421 -0.67596,-1.39636 -2.20158,-2.63148 -3.77306,-3.05463 -1.35416,-0.36464 -3.26044,0.07 -4.54003,1.03508 -0.9791,0.73847 -2.2676,2.93712 -2.26508,3.86505 0.003,1.22198 0.62833,2.64874 1.6421,3.74856 1.79108,1.94309 4.41462,2.38914 6.82364,1.16015 z m -54.107837,-29.40585 c -3.74467,-0.4752 -7.81168,-1.92743 -10.62775,-3.79492 -1.77397,-1.17641 -5.12033,-4.39535 -5.09631,-4.90226 0.0116,-0.24514 3.07994,-1.9153 8.13594,-4.4286 4.46451,-2.21927 9.78416,-4.92253 11.82146,-6.00725 3.79604,-2.02113 4.39607,-2.27368 3.856,-1.62293 -0.40527,0.48832 0.0671,0.79814 0.70259,0.46084 0.32636,-0.17321 0.57199,-0.13678 0.80965,0.12006 0.19681,0.21269 0.2248,0.36869 0.0661,0.36869 -0.15126,0 -0.27502,0.13209 -0.27502,0.29353 0,0.30782 1.34077,0.21616 2.18281,-0.14922 0.37781,-0.16395 0.46687,-0.0618 0.48391,0.55499 0.0115,0.41575 0.0812,0.60634 0.15489,0.42353 0.19629,-0.48688 0.61529,-0.12618 0.63474,0.54643 0.0168,0.5797 0.0168,0.5797 0.25606,-0.0156 0.2745,-0.68291 0.61757,-0.75365 1.1058,-0.22802 0.28995,0.31214 0.49012,0.29147 1.33335,-0.13767 0.54571,-0.27773 0.99219,-0.62863 0.99219,-0.77978 0,-0.15115 0.10557,-0.20958 0.2346,-0.12983 0.27401,0.16935 0.88093,-0.47657 0.68915,-0.73342 -0.0715,-0.0958 -0.0522,-0.11614 0.0429,-0.0453 0.15343,0.1143 1.86745,-0.79624 2.20837,-1.17315 0.26804,-0.29634 1.89229,-1.12029 1.99868,-1.01389 0.10457,0.10457 -1.12969,1.03462 -3.45389,2.6026 -2.21151,1.49196 -6.81479,3.70271 -7.38114,3.54483 -0.37082,-0.10337 -0.44327,-0.0762 -0.21726,0.0815 0.23555,0.16432 -0.53196,0.64756 -2.51354,1.58257 -3.16867,1.49512 -4.8503,2.0487 -7.0635,2.32522 -1.59647,0.19946 -2.53602,0.9638 -2.53602,2.06308 0,0.29984 -0.31066,0.86942 -0.69036,1.26574 -0.3797,0.39632 -0.61079,0.84932 -0.51355,1.00666 0.34763,0.56248 4.85148,0.33484 7.55391,-0.38179 3.33394,-0.88409 5.13798,-1.61945 9.70767,-3.95699 4.95403,-2.53415 9.45447,-5.54619 12.14208,-8.12639 1.17982,-1.13268 2.20619,-1.99836 2.28082,-1.92373 0.0746,0.0746 0.28043,-0.0387 0.45732,-0.25185 0.1769,-0.21315 0.49152,-0.32235 0.69917,-0.24267 0.22806,0.0875 0.37753,-0.0194 0.37753,-0.27 0,-0.22819 0.24092,-0.63934 0.53539,-0.91368 0.35253,-0.32842 0.75288,-1.43898 1.17214,-3.25145 0.35022,-1.51396 0.64424,-2.51453 0.65338,-2.22349 0.0525,1.67187 -1.54057,6.59745 -3.39903,10.50918 -0.5932,1.24859 -1.07855,2.34366 -1.07855,2.43349 0,0.0898 -0.78348,1.4114 -1.74108,2.93683 -3.52489,5.61513 -8.81164,9.75091 -15.72112,12.29852 -4.02213,1.483 -6.83237,1.81204 -10.98051,1.28564 z m -17.49781,-14.7133 c -0.009,-0.25457 -0.0486,-0.58192 -0.088,-0.72744 -0.0394,-0.14552 -0.0575,-1.28654 -0.0403,-2.53559 0.0223,-1.61871 0.12633,-2.27343 0.36206,-2.27945 0.1819,-0.005 1.34276,-0.59985 2.57969,-1.32268 1.23693,-0.72284 4.03489,-2.30807 6.21771,-3.52275 2.18281,-1.21468 5.15937,-2.8876 6.61458,-3.7176 1.45521,-0.83001 3.83646,-2.09386 5.29167,-2.80855 1.4552,-0.7147 2.97528,-1.51753 3.37794,-1.78407 0.63467,-0.42012 0.71014,-0.42735 0.567,-0.0544 -0.0908,0.23664 -0.2764,0.43026 -0.41244,0.43026 -0.13604,0 -0.50294,0.23812 -0.81533,0.52916 -0.568,0.52917 -0.568,0.52917 0.34179,0.55006 0.50038,0.0115 0.76096,0.0809 0.57906,0.15434 -0.39197,0.15816 -0.45337,2.20602 -0.0661,2.20602 0.14552,0 0.26458,0.35719 0.26458,0.79375 0,0.43656 0.11533,0.79375 0.25628,0.79375 0.14096,0 0.1782,-0.20836 0.0828,-0.46302 -0.14689,-0.39193 -0.11014,-0.41154 0.23935,-0.12773 0.44522,0.36156 1.2737,0.18242 1.2737,-0.2754 0,-0.15421 0.0655,-0.21491 0.14548,-0.1349 0.08,0.08 1.46231,-0.56175 3.07178,-1.42613 1.60946,-0.86439 2.97107,-1.52685 3.02579,-1.47213 0.0979,0.0979 -2.663,1.68336 -6.17293,3.54469 -0.98445,0.52206 -2.74241,1.49147 -3.90658,2.15424 -2.80455,1.59666 -6.68853,3.66773 -10.58333,5.6434 -1.74625,0.88579 -4.96094,2.59638 -7.14375,3.80131 -4.56821,2.52167 -5.03894,2.71237 -5.0624,2.05082 z m 51.16131,-22.55557 c 0.0777,-1.67349 0.18501,-3.09231 0.23839,-3.15295 0.17926,-0.20359 0.053,3.53564 -0.16451,4.87275 -0.14142,0.86931 -0.16676,0.27962 -0.0739,-1.7198 z"
         id="path24" /><path
         style="fill:#66a214"
         d="m -139.36942,171.17899 c -0.3638,-0.15312 -1.19724,-0.44031 -1.85208,-0.6382 -1.19063,-0.35982 -1.19063,-0.35982 0,-0.20272 1.11064,0.14654 2.64583,0.74264 2.64583,1.02735 0,0.15203 0.0236,0.15757 -0.79375,-0.18643 z m -39.6875,-1.27427 c 0.65871,-0.13772 0.32137,-0.18495 -1.16851,-0.1636 -1.46822,0.021 -2.1277,-0.0694 -2.20541,-0.30237 -0.061,-0.18281 -0.20607,-0.27353 -0.32245,-0.20161 -0.30438,0.18812 -1.85988,-0.39577 -1.85988,-0.69813 0,-0.13988 -0.11556,-0.1829 -0.25681,-0.0956 -0.63324,0.39136 -4.69739,-2.77825 -4.32823,-3.37557 0.0944,-0.15281 0.0408,-0.19411 -0.12167,-0.0937 -0.7444,0.46006 -3.13373,-5.17868 -3.39765,-8.01834 -0.15933,-1.71441 -0.13415,-1.86643 0.28274,-1.70645 0.33111,0.12706 0.36864,0.23064 0.13572,0.37459 -0.24547,0.1517 -0.22333,0.33975 0.0932,0.79166 0.40705,0.58114 0.41714,0.57011 0.51811,-0.56652 0.10298,-1.15921 0.10298,-1.15921 0.1492,-0.002 0.0398,0.99592 0.10145,1.11105 0.4431,0.8275 0.31977,-0.26538 0.40279,-0.25883 0.4273,0.0337 0.0167,0.19972 0.11902,-0.0536 0.2273,-0.56291 0.10827,-0.50933 0.28608,-1.25347 0.39513,-1.65365 0.17068,-0.62637 0.12065,-0.7276 -0.35959,-0.7276 -0.30932,0 -0.55785,-0.16986 -0.55785,-0.38126 0,-0.2097 -0.10186,-0.44422 -0.22636,-0.52116 -0.1245,-0.077 -0.17043,0.15267 -0.10207,0.51026 0.0836,0.43714 -0.0156,0.70386 -0.30281,0.81405 -0.2349,0.0901 -0.43732,0.35951 -0.44983,0.5986 -0.0125,0.23909 -0.12776,0.0831 -0.25611,-0.34675 -0.27489,-0.92053 -0.0526,-2.06921 0.35204,-1.81914 0.17616,0.10888 0.21817,0.009 0.11237,-0.26641 -0.20175,-0.52575 0.0435,-1.28718 0.35305,-1.0959 0.12022,0.0743 0.30473,-0.004 0.41003,-0.17469 0.11957,-0.19347 0.0768,-0.2389 -0.11401,-0.12099 -0.98372,0.60797 0.55029,-1.94187 1.97451,-3.28203 0.69591,-0.65484 1.09269,-0.96162 0.88173,-0.68172 -0.35571,0.47193 -0.3384,0.49725 0.23837,0.34853 0.34206,-0.0882 0.909,-0.0296 1.25984,0.13029 0.46422,0.21151 0.97926,0.2106 1.8916,-0.003 1.04549,-0.24515 1.30418,-0.22814 1.5577,0.10244 0.23945,0.31224 0.3335,0.32321 0.44288,0.0517 0.1101,-0.27334 0.19429,-0.26507 0.40639,0.0399 0.44742,0.64332 1.62485,-0.14712 1.62485,-1.09081 0,-0.41197 0.10792,-0.74904 0.23981,-0.74904 0.1319,0 0.18354,-0.21519 0.11476,-0.47821 -0.0688,-0.26301 0.0912,-0.73518 0.3555,-1.04926 0.41708,-0.49562 0.78182,-0.57712 2.76122,-0.61702 1.25437,-0.0253 2.40448,0.0305 2.55581,0.12407 0.15133,0.0935 0.46448,0.0974 0.6959,0.009 0.23141,-0.0888 0.42075,-0.0334 0.42075,0.12313 0,0.15653 0.16655,0.22068 0.37011,0.14256 0.20356,-0.0781 0.44992,-0.0129 0.54745,0.14492 0.0975,0.15781 0.28817,0.21843 0.42364,0.13471 0.13546,-0.0837 0.2463,-0.0191 0.2463,0.14359 0,0.1627 0.11906,0.22223 0.26458,0.13229 0.14552,-0.0899 0.26459,-0.0176 0.26459,0.16078 0,0.17836 0.0637,0.26058 0.14157,0.18272 0.0779,-0.0779 0.51093,0.20344 0.96236,0.62514 0.45143,0.4217 0.88548,0.70202 0.96456,0.62294 0.19863,-0.19864 1.63567,1.21111 1.63567,1.60462 0,0.17548 0.1786,0.3876 0.39688,0.47136 0.21828,0.0838 0.39687,0.33462 0.39687,0.55747 0,0.22285 0.0934,0.40518 0.20754,0.40518 0.30692,0 1.12954,1.48515 0.93202,1.68267 -0.0932,0.0932 -0.0343,0.16941 0.13096,0.16941 0.17146,0 0.22786,0.18896 0.13142,0.44028 -0.12012,0.31304 -0.0713,0.37993 0.16895,0.23145 0.25317,-0.15647 0.2905,-0.0595 0.1489,0.38661 -0.13211,0.41626 -0.0976,0.53898 0.11456,0.40784 0.21293,-0.1316 0.25231,0.0165 0.13195,0.49603 -0.1072,0.42714 -0.0616,0.68363 0.12169,0.68363 0.391,0 0.40112,4.66461 0.0106,4.90594 -0.15544,0.0961 -0.22317,0.32958 -0.15052,0.51891 0.0727,0.18934 0.0525,0.42382 -0.0447,0.52108 -0.0973,0.0973 -0.18471,0.31726 -0.19433,0.48889 -0.041,0.73149 -0.46503,1.76726 -0.72349,1.76726 -0.154,0 -0.20887,0.0711 -0.12192,0.15808 0.4748,0.4748 -3.25131,5.05979 -3.82422,4.70571 -0.17917,-0.11073 -0.22231,-0.0635 -0.1092,0.11948 0.11363,0.18386 -0.27477,0.59537 -0.9901,1.04902 -0.98709,0.62599 -1.41516,0.73484 -2.65207,0.67435 -1.16414,-0.0569 -1.53065,0.0233 -1.7391,0.38093 -0.16658,0.28576 -0.26708,0.32517 -0.27215,0.10671 -0.004,-0.19049 -0.12191,-0.27597 -0.26107,-0.18996 -0.13917,0.086 -0.18596,0.33116 -0.10399,0.54478 0.10198,0.26574 -0.027,0.3884 -0.40843,0.3884 -0.30661,0 -0.55747,-0.11906 -0.55747,-0.26458 0,-0.14552 -0.19134,-0.26459 -0.42519,-0.26459 -0.26923,0 -0.36932,0.14557 -0.27288,0.39688 0.12168,0.31709 -0.0721,0.38987 -0.96388,0.36204 -1.11618,-0.0348 -1.11618,-0.0348 -0.19014,-0.22845 z m 2.11428,-7.76867 c 0.001,-0.12471 0.20586,-0.14867 0.45454,-0.0532 0.29734,0.1141 0.62225,-0.0347 0.949,-0.43471 0.27327,-0.33452 0.41792,-0.42963 0.32144,-0.21135 -0.0965,0.21828 0.0804,0.0992 0.39312,-0.26458 0.31269,-0.3638 0.82778,-0.88015 1.14464,-1.14744 0.31686,-0.26729 0.39751,-0.40729 0.17923,-0.31111 -0.31207,0.13751 -0.30646,0.10001 0.0263,-0.17547 0.42535,-0.35219 0.50291,-0.51064 0.50291,-1.02743 0,-0.15411 0.0893,-0.22501 0.19844,-0.15756 0.10914,0.0675 0.19843,-0.68805 0.19843,-1.67891 0,-0.99085 -0.0766,-1.75421 -0.17021,-1.69635 -0.0936,0.0579 -0.24241,-0.18246 -0.33065,-0.53404 -0.0882,-0.35158 -0.45481,-0.98908 -0.8146,-1.41666 -0.35978,-0.42758 -0.5781,-0.85348 -0.48514,-0.94643 0.0929,-0.093 0.0301,-0.16902 -0.13967,-0.16902 -0.16978,0 -0.36821,0 -0.44098,0 -0.0728,0 -0.38073,-0.24844 -0.68438,-0.55209 -0.38034,-0.38034 -0.7457,-0.5035 -1.17441,-0.3959 -0.34227,0.0859 -0.6878,0.0502 -0.76783,-0.0793 -0.24617,-0.39831 -4.37123,-0.21733 -4.63088,0.20317 -0.15294,0.2477 -0.45815,0.30835 -0.94135,0.18708 -0.70725,-0.17751 -0.71309,-0.16792 -0.53592,0.88073 0.13,0.76943 0.0643,1.22408 -0.23941,1.65774 -0.23019,0.32864 -0.41852,0.81619 -0.41852,1.08344 0,0.26725 -0.10847,0.41887 -0.24103,0.33694 -0.13257,-0.0819 -0.2814,0.55617 -0.33073,1.41801 -0.0766,1.33798 -0.034,1.52179 0.29182,1.25782 0.29625,-0.24005 0.33711,-0.23522 0.18282,0.0216 -0.11835,0.197 -0.0586,0.33237 0.14765,0.33479 0.24283,0.003 0.25694,0.0621 0.0472,0.19843 -0.21096,0.13709 -0.11625,0.58434 0.3213,1.51731 0.34123,0.7276 0.62467,1.22659 0.62986,1.10886 0.005,-0.11773 0.1412,-0.13261 0.30226,-0.0331 0.20474,0.12653 0.18484,0.25813 -0.0661,0.43745 -0.28762,0.20548 -0.2782,0.23118 0.0474,0.12926 0.2235,-0.07 0.81553,0.0844 1.31562,0.343 0.65407,0.33823 1.44898,0.45974 2.83239,0.43297 1.05773,-0.0205 1.92422,-0.13926 1.92554,-0.26397 z m 35.31103,3.02244 c -0.13824,-0.13586 -0.96573,-0.68493 -1.83885,-1.22017 -1.19297,-0.73131 -1.39054,-0.92764 -0.79496,-0.78998 0.89012,0.20573 3.58446,2.25716 2.96454,2.25716 -0.0437,0 -0.19248,-0.11115 -0.33073,-0.24701 z M -180.53743,123.175 c 0.11923,-0.3107 0.0504,-0.38291 -0.25358,-0.26624 -0.33127,0.12712 -0.37942,0.0378 -0.23385,-0.43357 0.45814,-1.48355 1.23653,-3.39763 1.33973,-3.29443 0.0626,0.0626 -0.009,0.43578 -0.15813,0.82923 -0.44759,1.17726 -0.36413,1.54261 0.27435,1.20091 0.30048,-0.16082 0.77732,-0.33688 1.05964,-0.39125 0.43676,-0.0841 0.47168,-0.0211 0.23414,0.42279 -0.15354,0.2869 -0.37773,0.46072 -0.49819,0.38627 -0.12046,-0.0745 -0.5329,0.33894 -0.91652,0.91864 -0.71205,1.07597 -1.14173,1.39416 -0.84759,0.62765 z m 37.06697,-12.20267 c 0.29104,-0.0727 0.5887,-0.21018 0.66146,-0.30547 0.0728,-0.0953 0.66807,-0.0316 1.32291,0.1416 1.19063,0.31488 1.19063,0.31488 -0.66145,0.30548 -1.01865,-0.005 -1.61396,-0.0689 -1.32292,-0.14161 z m -2.51354,-0.32135 c 0,-0.17164 -0.20836,-0.29088 -0.46302,-0.26497 -1.15178,0.11716 -1.9425,-0.0251 -1.76209,-0.31701 0.13293,-0.21509 -0.0355,-0.25119 -0.5797,-0.12425 -0.59783,0.13944 -0.67951,0.11405 -0.37019,-0.11511 0.31302,-0.2319 0.24315,-0.26048 -0.33073,-0.13529 -0.40977,0.0894 -0.7276,0.0446 -0.7276,-0.10258 0,-0.14373 -0.20836,-0.18324 -0.46303,-0.0878 -0.41958,0.15725 -0.42578,0.12758 -0.0661,-0.3162 0.37121,-0.45807 0.35951,-0.46983 -0.18104,-0.18183 -0.80006,0.42625 -0.99198,0.38478 -0.49932,-0.10787 0.22868,-0.22868 0.4194,-0.61563 0.42382,-0.8599 0.007,-0.40348 0.0309,-0.40509 0.25731,-0.0176 0.21075,0.36062 0.63881,0.40616 2.77008,0.29468 2.21135,-0.11567 2.52081,-0.0787 2.52081,0.30107 0,0.23811 -0.20835,0.44541 -0.46302,0.46067 -0.25466,0.0153 0.0132,0.17941 0.59532,0.36478 0.61294,0.1952 1.16411,0.2392 1.30968,0.10455 0.43291,-0.40041 0.74213,-0.25438 0.60135,0.28399 -0.0743,0.28406 0.001,0.57232 0.16757,0.64057 0.16646,0.0683 -0.11407,0.13512 -0.6234,0.14859 -0.50932,0.0135 -1.19393,0.0963 -1.52135,0.18404 -0.37105,0.0994 -0.59531,0.042 -0.59531,-0.15254 z m -6.19008,-1.91102 c 0.12747,-0.20625 0.005,-0.25548 -0.3835,-0.15393 -0.31399,0.0821 -0.50787,0.0473 -0.43083,-0.0773 0.077,-0.12465 -0.1014,-0.35586 -0.39651,-0.5138 -0.36133,-0.19338 -0.53658,-0.19771 -0.53658,-0.0133 0,0.15064 -0.12609,0.2739 -0.2802,0.2739 -0.15411,0 -0.19411,-0.1393 -0.0889,-0.30955 0.1298,-0.21002 0.0453,-0.25353 -0.26271,-0.13532 -0.24971,0.0958 -0.38899,0.069 -0.3095,-0.0596 0.0795,-0.1286 -0.0396,-0.30447 -0.26459,-0.39081 -0.26888,-0.10318 -0.35232,-0.0447 -0.24344,0.17071 0.0911,0.18024 -0.004,0.12119 -0.21086,-0.13121 -0.20708,-0.2524 -0.45403,-0.40122 -0.54878,-0.33073 -0.0948,0.0705 -0.11378,0.0498 -0.0423,-0.0459 0.162,-0.21695 -0.37167,-0.88424 -0.70717,-0.88424 -0.13629,0 -0.15839,0.14883 -0.0491,0.33073 0.13502,0.22472 0.0552,0.21434 -0.24896,-0.0324 -0.48465,-0.39312 -0.61375,-0.69679 -0.18308,-0.43062 0.14552,0.0899 0.26458,0.0416 0.26458,-0.10737 0,-0.14899 -0.26789,-0.40942 -0.59531,-0.57874 -0.32743,-0.16932 -0.87182,-0.61999 -1.20977,-1.0015 -0.33794,-0.3815 -0.52842,-0.51505 -0.42328,-0.29677 0.24978,0.51857 -1.70949,-1.31881 -2.02645,-1.90038 -0.18759,-0.34419 -0.0591,-0.57583 0.56623,-1.02113 0.44487,-0.31678 1.08818,-0.5927 1.42958,-0.61316 0.3414,-0.0205 0.57276,-0.1149 0.51413,-0.20987 -0.0586,-0.095 0.25454,-0.298553 0.69591,-0.452413 0.46417,-0.16181 0.73711,-0.17396 0.6474,-0.0288 -0.0853,0.13803 0.029,0.18031 0.25401,0.094 0.225,-0.0863 0.33071,-0.28381 0.23492,-0.43881 -0.10923,-0.17673 -0.01,-0.21882 0.2661,-0.11287 0.24215,0.0929 0.44028,0.0574 0.44028,-0.079 0,-0.13638 0.20836,-0.17321 0.46302,-0.0818 0.25466,0.0914 0.38499,0.0791 0.28961,-0.0274 -0.1959,-0.21862 1.70791,-1.20471 12.56538,-6.50831 7.1782,-3.50637 10.48763,-5.3133 19.7549,-10.78604 5.18892,-3.06429 5.11325,-2.98863 4.95457,-4.95374 -0.0705,-0.87312 -0.33323,-2.01307 -0.58384,-2.53321 -0.45566,-0.94571 -0.45566,-0.94571 -1.5533,-0.41422 -1.15162,0.55763 -8.14694,4.52938 -12.21013,6.93256 -1.30969,0.77462 -2.55701,1.44501 -2.77183,1.48976 -0.21482,0.0448 -0.55184,0.23128 -0.74893,0.41452 -0.1971,0.18324 -0.46783,0.26551 -0.60162,0.18283 -0.13379,-0.0827 -0.24325,-0.0172 -0.24325,0.14547 0,0.1627 -0.11906,0.22223 -0.26458,0.13229 -0.14552,-0.0899 -0.26459,-0.0304 -0.26459,0.13229 0,0.1627 -0.11906,0.22223 -0.26458,0.1323 -0.14552,-0.0899 -0.26458,-0.0304 -0.26458,0.13229 0,0.16269 -0.11906,0.22223 -0.26459,0.13229 -0.14552,-0.0899 -0.26458,-0.0176 -0.26458,0.16077 0,0.17837 -0.0695,0.25485 -0.15434,0.16996 -0.0849,-0.0849 -0.39175,0.0831 -0.68191,0.37323 -0.29017,0.29017 -0.70147,0.46085 -0.91401,0.37929 -0.21254,-0.0816 -0.45131,0.0208 -0.53061,0.22742 -0.0826,0.21515 -0.32297,0.3071 -0.56255,0.21516 -0.27502,-0.10553 -0.35347,-0.0555 -0.22895,0.14597 0.12008,0.19428 0.0516,0.25361 -0.18706,0.16204 -0.20708,-0.0795 -0.54175,0.0208 -0.74371,0.22272 -0.20197,0.20197 -0.49002,0.32627 -0.64013,0.27624 -0.1501,-0.05 -0.50623,0.0981 -0.79139,0.32909 -0.28515,0.23103 -0.35124,0.3333 -0.14685,0.22727 0.23833,-0.12366 0.30646,-0.0874 0.18996,0.10111 -0.0999,0.16165 -0.35542,0.22723 -0.56782,0.14572 -0.21239,-0.0815 -0.45591,0.0336 -0.54115,0.25568 -0.0852,0.22213 -0.33055,0.47125 -0.54514,0.55359 -0.21683,0.0832 -0.31918,0.0349 -0.23038,-0.1088 0.0905,-0.14639 -0.0177,-0.19043 -0.24932,-0.10154 -0.22501,0.0863 -0.35094,0.2511 -0.27985,0.36612 0.0711,0.11502 -0.0548,0.27978 -0.27984,0.36612 -0.26889,0.10318 -0.35232,0.0447 -0.24344,-0.17071 0.0911,-0.18024 0.008,-0.13866 -0.1847,0.0924 -0.19269,0.23105 -0.49174,0.37244 -0.66454,0.31419 -0.17281,-0.0582 -0.54984,0.12974 -0.83785,0.41775 -0.28801,0.28801 -0.59311,0.4542 -0.67799,0.36931 -0.0849,-0.0849 -0.15434,-0.003 -0.15434,0.18265 0,0.19586 -0.17197,0.271 -0.41062,0.17942 -0.26828,-0.10295 -0.34495,-0.0513 -0.22118,0.14895 0.12651,0.2047 0.0432,0.25039 -0.25084,0.13756 -0.24216,-0.0929 -0.44028,-0.0574 -0.44028,0.079 0,0.13638 -0.19813,0.17194 -0.44028,0.079 -0.2761,-0.10595 -0.37533,-0.0639 -0.2661,0.11287 0.22265,0.36026 -0.48077,0.63735 -1.05682,0.4163 -0.2761,-0.10595 -0.37533,-0.0639 -0.2661,0.11287 0.20794,0.33645 -0.54399,0.67792 -0.94587,0.42954 -0.15592,-0.0964 -0.20498,-0.0501 -0.10994,0.10371 0.0944,0.15276 -0.0124,0.34838 -0.23744,0.43472 -0.23165,0.0889 -0.3398,0.0448 -0.24933,-0.10153 0.0905,-0.14639 -0.0177,-0.19043 -0.24932,-0.10154 -0.225,0.0863 -0.35093,0.2511 -0.27984,0.36612 0.17461,0.28253 -0.63769,0.57509 -0.9908,0.35685 -0.15591,-0.0963 -0.20498,-0.0501 -0.10994,0.10371 0.19432,0.31441 -0.53888,0.67856 -0.90751,0.45073 -0.13239,-0.0818 -0.24071,-0.0264 -0.24071,0.12312 0,0.14955 -0.17759,0.20375 -0.39465,0.12046 -0.22171,-0.0851 -0.46318,0.0272 -0.55106,0.25618 -0.0927,0.24147 -0.32696,0.34218 -0.5748,0.24707 -0.23838,-0.0915 -0.3498,-0.0496 -0.25897,0.0974 0.0877,0.14186 -0.96861,0.81826 -2.34729,1.50312 -2.35831,1.17149 -3.14831,1.86124 -2.5864,2.25819 0.41933,0.29623 1.06514,1.46176 1.26797,2.2884 0.10712,0.436563 0.3741,0.992793 0.5933,1.236073 0.36022,0.3998 0.32644,0.48761 -0.35134,0.91327 -0.41244,0.25902 -1.1666,0.7903 -1.67593,1.18061 -0.92604,0.70967 -0.92604,0.70967 -0.98516,-0.0996 -0.0325,-0.44507 -0.15158,-0.87774 -0.26458,-0.96148 -0.11301,-0.0837 -0.42131,-0.54047 -0.68511,-1.01496 -0.71033,-1.277643 -0.63405,-3.813643 0.10105,-3.359323 0.20834,0.12876 0.28269,-0.12693 0.23685,-0.8145 -0.005,-0.078 0.1734,-0.32458 0.39688,-0.54806 0.26049,-0.2605 0.40661,-0.89808 0.40712,-1.77649 0.002,-4.05543 0.28317,-6.80363 0.92421,-9.04505 1.70876,-5.97473 5.33649,-11.26607 10.24708,-14.94619 6.83504,-5.12236 16.95168,-7.58401 28.34976,-6.89825 6.1326,0.36897 16.89621,1.82635 17.42985,2.35998 0.24085,0.24085 -0.69009,8.55438 -1.40126,12.5136 -0.74323,4.13771 -5.21087,15.80902 -5.89068,15.38887 -0.14544,-0.0899 -0.18874,-0.041 -0.0962,0.10875 0.0925,0.1497 -0.12915,0.59304 -0.4926,0.98521 -0.36345,0.39217 -0.58095,0.84226 -0.48333,1.00021 0.1035,0.16747 0.0549,0.21139 -0.11671,0.10535 -0.17141,-0.10593 -0.47367,0.16524 -0.72419,0.6497 -0.31686,0.61274 -0.33723,0.78375 -0.0774,0.64995 0.19392,-0.0999 0.10826,0.0359 -0.19035,0.30161 -0.51621,0.45939 -0.64769,0.67147 -0.64769,1.04474 0,0.0906 -0.17718,0.0176 -0.39374,-0.16209 -0.31888,-0.26464 -0.42488,-0.24565 -0.55748,0.0999 -0.09,0.23467 -0.10166,0.58843 -0.0258,0.78613 0.0809,0.21088 -0.70942,1.201853 -1.91197,2.397353 -1.12745,1.12084 -2.04991,1.85729 -2.04991,1.63655 0,-0.22073 0.081,-0.35127 0.18,-0.29009 0.099,0.0612 0.50555,-0.22856 0.90345,-0.64388 0.3979,-0.41531 0.62448,-0.80829 0.50351,-0.87327 -0.12097,-0.065 -0.0855,-0.0874 0.0788,-0.0498 0.16432,0.0376 0.7001,-0.34779 1.19062,-0.8564 0.89187,-0.924753 0.89187,-0.924753 0.0981,-0.751783 -0.62578,0.136373 -0.70977,0.109443 -0.39688,-0.12723 0.33409,-0.25272 0.31317,-0.28501 -0.13229,-0.20413 -0.29104,0.0528 -0.4994,0.23784 -0.46302,0.411103 0.0364,0.17326 -0.18049,0.31502 -0.48192,0.31502 -0.30144,0 -0.73986,0.19179 -0.97428,0.42621 -0.3919,0.3919 -0.45192,0.39108 -0.74539,-0.0103 -0.28191,-0.38553 -0.35189,-0.34262 -0.59945,0.36753 -0.46413,1.33141 -0.78412,0.9203 -0.6613,-0.84962 0.0976,-1.406463 0.0303,-1.752523 -0.4503,-2.315103 -0.31078,-0.36381 -0.48816,-0.51263 -0.39419,-0.33073 0.094,0.1819 0.015,0.34404 -0.17547,0.3603 -1.67738,0.14324 -2.44194,0.40172 -4.54584,1.53686 -4.56927,2.465313 -12.69845,5.299813 -15.24738,5.316503 -0.3638,0.002 -0.53585,0.0918 -0.38232,0.19872 0.18315,0.12754 0.121,0.34752 -0.18074,0.6397 -0.38187,0.36979 -0.51013,0.38476 -0.7562,0.0883 -0.22808,-0.27482 -0.18646,-0.38556 0.18073,-0.48077 0.26239,-0.068 0.0831,-0.13752 -0.39844,-0.1544 -0.5228,-0.0183 -0.80963,0.0759 -0.71199,0.23389 0.0899,0.14552 -0.0221,0.26458 -0.24897,0.26458 -0.22687,0 -0.41249,-0.0992 -0.41249,-0.22036 0,-0.2577 -0.96328,-0.22747 -1.22933,0.0386 -0.1,0.1 -0.4681,0.18178 -0.81804,0.18178 -0.87867,0 -1.37705,0.58116 -1.45692,1.69892 -0.0372,0.52022 -0.18665,0.94792 -0.33217,0.95044 -0.14552,0.003 -0.10577,0.10525 0.0883,0.22829 0.28245,0.17904 0.2665,0.25687 -0.0799,0.38979 -0.28537,0.10951 -0.36896,0.0628 -0.2454,-0.13715 z m -6.0557,-19.950883 c 0.33808,-0.33807 0.45821,-0.35052 0.63851,-0.0661 0.16877,0.26619 0.22306,0.23913 0.22613,-0.11275 0.004,-0.44318 0.27803,-0.57603 0.99624,-0.48277 0.1819,0.0236 0.33073,-0.14258 0.33073,-0.36933 0,-0.33009 -0.31648,-0.25252 -1.5875,0.38908 -0.87312,0.44076 -1.5875,0.85919 -1.5875,0.92985 0,0.27868 0.58934,0.10612 0.98339,-0.28794 z m 2.85307,-1.43566 c -0.0931,-0.15065 0.13475,-0.26458 0.52917,-0.26458 0.38098,0 0.62126,-0.11557 0.53396,-0.25683 -0.0873,-0.14125 0.13891,-0.33153 0.5027,-0.42283 0.36378,-0.0913 0.81291,-0.34853 0.99805,-0.57162 0.18515,-0.22309 -0.40983,-0.0288 -1.32217,0.43174 -0.91234,0.46055 -1.58769,0.95242 -1.50079,1.09303 0.0869,0.14062 0.21755,0.25568 0.29031,0.25568 0.0728,0 0.0587,-0.11907 -0.0312,-0.26459 z m 3.58371,-1.97706 c 0.26767,0.16543 1.1316,-0.30475 1.95805,-1.06564 0.31612,-0.29105 0.80589,-0.68311 1.08838,-0.87126 0.28248,-0.18815 -0.37666,0.13118 -1.46478,0.70964 -1.08811,0.57845 -2.00191,1.18185 -2.03067,1.34089 -0.0329,0.18166 -0.002,0.18772 0.0827,0.0163 0.0743,-0.15007 0.2391,-0.20854 0.36627,-0.12995 z"
         id="path23" /><path
         style="fill:#0467a0"
         d="m -147.424,168.53636 c -0.99144,-0.52268 -1.01781,-0.56843 -0.53222,-0.92351 0.40608,-0.29693 0.53201,-0.30384 0.61378,-0.0337 0.0566,0.18694 0.3466,0.60778 0.64449,0.9352 0.65578,0.7208 0.60254,0.72242 -0.72605,0.022 z m 20.66639,-15.2135 c -0.31789,-0.31788 -0.18564,-0.91901 0.35277,-1.60349 0.29105,-0.37 0.53099,-0.98409 0.53322,-1.36465 0.006,-0.98103 0.27849,-1.29247 1.18658,-1.35489 1.46772,-0.10089 1.58359,-0.0497 1.09934,0.48536 -0.24084,0.26612 -0.43789,0.63581 -0.43789,0.82153 0,0.18572 -0.35718,0.86692 -0.79375,1.51378 -0.43656,0.64686 -0.79375,1.28921 -0.79375,1.42743 0,0.28555 -0.8785,0.34296 -1.14652,0.0749 z m -61.96046,-36.3896 c -0.11043,-0.43998 0.13886,-1.22426 0.80752,-2.54044 0.79547,-1.5658 1.08022,-1.90398 1.60316,-1.90398 0.76994,0 0.77146,0.0199 0.10135,1.33346 -0.294,0.57628 -0.4168,1.04779 -0.27289,1.04779 0.14391,0 0.19339,0.17791 0.10994,0.39535 -0.0834,0.21745 -0.27853,0.31698 -0.43353,0.22118 -0.18332,-0.11329 -0.21498,1e-5 -0.0906,0.32419 0.10518,0.2741 0.11624,0.42337 0.0246,0.33171 -0.0917,-0.0917 -0.50936,0.19197 -0.92824,0.63028 -0.76158,0.79693 -0.76158,0.79693 -0.92132,0.16046 z m -21.89041,-17.855973 c -0.41219,-0.10772 -0.48818,-0.2339 -0.45357,-0.75311 0.005,-0.078 -0.16438,-0.31557 -0.37684,-0.52803 -0.38394,-0.38394 -1.86735,-4.02537 -3.39179,-8.32606 -0.43844,-1.23693 -0.96631,-2.57761 -1.17304,-2.9793 -0.29226,-0.56788 -0.30047,-0.71502 -0.0369,-0.66146 0.18642,0.0379 0.4026,0.15349 0.4804,0.25689 0.0778,0.1034 0.12816,-0.75633 0.11191,-1.91052 -0.0322,-2.28718 -0.013,-2.34857 0.89495,-2.85867 1.13459,-0.63746 4.57653,0.83242 4.85368,2.07275 0.0459,0.20533 0.29796,0.55621 0.56017,0.77974 0.26221,0.22354 0.77921,1.12066 1.14889,1.9936 1.20326,2.84134 2.34971,5.81454 2.34637,6.0851 -0.002,0.14552 0.27636,1.00127 0.61812,1.90166 0.62138,1.63709 0.62138,1.63709 -0.20756,2.4474 -0.45592,0.44567 -0.92714,0.81031 -1.04717,0.81031 -0.12002,0 -0.74099,0.41556 -1.37994,0.92347 -1.10003,0.87444 -1.78929,1.04894 -2.94765,0.74623 z m -9.5381,-20.10818 c -0.67759,-0.97335 -1.15878,-1.83655 -1.06931,-1.91823 0.0895,-0.0817 0.21729,0.005 0.28405,0.19201 0.0668,0.18728 0.40764,0.68071 0.75752,1.09653 0.34989,0.41581 0.63616,0.88766 0.63616,1.04855 0,0.1609 0.10517,0.29254 0.23372,0.29254 0.12855,0 0.296,0.23812 0.3721,0.52916 0.0761,0.29105 0.11124,0.52917 0.0781,0.52917 -0.0332,0 -0.61471,-0.79638 -1.2923,-1.76973 z m 7.02283,-0.94225 c -0.39452,-0.49245 -1.41868,-2.57969 -1.26579,-2.57969 0.0728,0 0.36891,0.46383 0.65813,1.03073 0.28921,0.56691 0.71685,1.22175 0.95031,1.45521 0.23347,0.23347 0.31149,0.42448 0.1734,0.42448 -0.1381,0 -0.37032,-0.14883 -0.51605,-0.33073 z m 21.76371,0.044 c -5.71647,-0.58435 -11.77261,-3.02908 -11.64932,-4.70257 0.0214,-0.29086 1.68264,-2.15136 3.73529,-4.18339 5.2815,-5.22846 9.35817,-8.02604 17.57132,-12.05817 5.41293,-2.6574 16.12112,-7.38543 16.8418,-7.43623 0.31346,-0.0221 0.52419,-0.11425 0.4683,-0.2048 -0.0559,-0.0906 0.99732,-0.58692 2.34049,-1.10304 1.34316,-0.51613 3.18626,-1.23687 4.09576,-1.60165 0.90951,-0.36478 1.65365,-0.55302 1.65365,-0.41831 0,0.13471 -0.1146,0.24492 -0.25466,0.24492 -0.53101,0 -3.20238,1.11359 -3.58198,1.49319 -0.21818,0.21818 -0.39669,0.32015 -0.39669,0.2266 0,-0.0935 -0.18204,0.012 -0.40454,0.23445 -0.23114,0.23114 -0.59971,0.33141 -0.85989,0.23394 -0.39776,-0.14901 -0.40949,-0.11419 -0.0927,0.27522 0.22057,0.27118 0.60922,0.40108 0.99218,0.33164 0.56297,-0.10209 0.62957,-0.018 0.62957,0.79436 0,0.49968 0.11906,0.90852 0.26458,0.90852 0.14552,0 0.26459,-0.17859 0.26459,-0.39688 0,-0.22048 0.23518,-0.39687 0.52916,-0.39687 0.48101,0 0.53196,0.18662 0.55986,2.05052 0.0169,1.12779 0.0834,1.8124 0.14778,1.52135 0.0644,-0.29104 0.18795,-0.70776 0.27456,-0.92604 0.0866,-0.21828 0.1289,-0.62163 0.094,-0.89633 -0.0349,-0.2747 0.0913,-0.59508 0.28036,-0.71195 0.1891,-0.11687 0.48454,-0.66602 0.65652,-1.22034 0.61991,-1.99799 0.35203,0.0988 -0.39998,3.13097 -2.05459,8.28405 -7.09041,15.97421 -13.09609,19.99892 -1.9202,1.28682 -6.10081,3.13383 -9.09724,4.01918 -3.36193,0.99335 -7.09892,1.24949 -11.56663,0.79279 z m 4.46662,-6.99085 c 4.25637,-1.11245 13.36963,-5.36365 17.81834,-8.31199 1.27671,-0.84613 3.98816,-2.40244 6.02545,-3.45848 2.0373,-1.05603 3.81174,-2.01872 3.94322,-2.13931 0.13148,-0.12059 0.22868,-0.58412 0.216,-1.03007 -0.0127,-0.44594 0.0867,-0.74295 0.22094,-0.66002 0.13419,0.0829 0.17309,-0.034 0.0864,-0.25982 -0.24106,-0.62819 -0.63012,-0.48843 -0.63012,0.22636 0,0.58672 -0.11747,0.64412 -1.48918,0.7276 -1.01412,0.0617 -1.52934,-0.0143 -1.61508,-0.23821 -0.17647,-0.4609 -1.41593,-0.13824 -1.98835,0.5176 -0.2741,0.31406 -0.63411,0.4639 -0.88408,0.36798 -0.57468,-0.22053 -3.10154,0.46382 -4.87122,1.31928 -2.63195,1.27227 -5.82895,2.75419 -5.94171,2.75419 -0.0609,0 -1.37274,0.70183 -2.91524,1.55962 -1.5425,0.85779 -4.21354,2.04271 -5.93564,2.63316 -3.90383,1.33849 -6.05296,2.34485 -6.2173,2.91134 -0.0697,0.24008 -0.20626,1.00068 -0.30358,1.69023 -0.14658,1.0385 -0.0999,1.28327 0.27169,1.42588 0.36105,0.13855 0.37974,0.22081 0.0957,0.42134 -0.49298,0.34807 2.16258,0.0533 4.11371,-0.45668 z m -49.6568,6.4588 c -2.02879,-0.4775 -5.42889,-2.33181 -6.88833,-3.75668 -1.68932,-1.64931 -3.90261,-5.74326 -3.10494,-5.74326 0.15532,0 0.28241,0.16499 0.28241,0.36663 0,0.20165 0.15671,0.66869 0.34824,1.03786 0.25309,0.48783 0.45189,0.60618 0.7276,0.43316 0.20865,-0.13094 0.59072,-0.17228 0.84904,-0.0919 0.25831,0.0804 0.45257,0.0479 0.43168,-0.0722 -0.13425,-0.77198 0.0564,-0.93277 0.91521,-0.77167 1.06084,0.19902 1.75531,-0.019 1.75531,-0.55118 0,-0.27045 0.16448,-0.33419 0.54813,-0.21243 0.34804,0.11047 0.73078,0.009 1.04848,-0.27884 0.27519,-0.24905 0.68338,-0.38258 0.90708,-0.29674 0.52922,0.20309 0.51689,-0.0608 -0.0312,-0.66637 -0.24084,-0.26612 -0.31495,-0.48386 -0.16469,-0.48386 0.15026,0 0.41974,0.17658 0.59885,0.3924 0.17911,0.21581 0.99736,0.58168 1.81834,0.81304 4.19335,1.18173 5.22674,1.56071 6.92393,2.53921 1.81547,1.0467 2.29281,1.42659 1.38176,1.09968 -0.25466,-0.0914 -0.38983,-0.0839 -0.30038,0.0166 0.0894,0.10051 0.39621,0.22773 0.68169,0.28271 0.75334,0.14508 2.2269,1.08965 2.02104,1.29551 -0.0965,0.0965 0.0755,0.17543 0.38221,0.17543 0.84635,0 1.01531,0.55199 0.33708,1.10119 -0.60475,0.4897 -0.47363,0.59222 0.64867,0.50713 0.29105,-0.0221 -0.1852,0.33393 -1.05833,0.7911 -0.87312,0.45716 -1.70656,0.92693 -1.85208,1.04392 -0.14552,0.11699 -1.00497,0.46166 -1.90989,0.76593 -1.76765,0.59438 -5.34283,0.72352 -7.29696,0.26359 z m 4.16569,-7.57429 c 0.10641,-0.2773 0.24693,-0.3486 0.35904,-0.18219 0.10131,0.15039 0.45039,0.27036 0.77573,0.26662 1.53854,-0.0177 -1.78807,-1.30213 -4.63833,-1.79089 -1.8795,-0.3223 -3.39714,-0.11863 -2.3032,0.30909 0.29104,0.1138 0.84204,0.14857 1.22445,0.0773 0.86312,-0.16091 1.8479,0.33225 1.65698,0.82977 -0.15519,0.40443 0.7738,0.82456 1.21725,0.5505 0.14682,-0.0907 0.26695,-0.0389 0.26695,0.11521 0,0.46791 1.25278,0.31542 1.44113,-0.1754 z m -3.60681,-0.272 c -0.0955,-0.50379 -1.53849,-0.83047 -1.53849,-0.34831 0,0.15519 0.23812,0.28216 0.52917,0.28216 0.29104,0 0.52916,0.11906 0.52916,0.26458 0,0.14553 0.1278,0.26459 0.28399,0.26459 0.15619,0 0.24447,-0.20836 0.19617,-0.46302 z m 20.57062,4.72807 c -0.21674,-0.41912 -0.70761,-1.16326 -1.09084,-1.65365 -0.39562,-0.50625 -0.21855,-0.37997 0.4097,0.29217 1.25653,1.34433 1.74906,2.12351 1.3423,2.12351 -0.14691,0 -0.44443,-0.34291 -0.66116,-0.76203 z m 5.62936,-4.59898 c -0.41559,-2.24759 -0.43118,-9.09945 -0.0242,-10.64628 0.2667,-1.01373 0.28088,-1.02488 0.33635,-0.26458 0.0319,0.43656 0.035,0.90947 0.007,1.05091 -0.028,0.14143 0.18113,0.0472 0.46472,-0.20948 0.28359,-0.25665 0.61982,-0.43719 0.74718,-0.4012 0.37172,0.10505 1.70994,-0.71395 3.23042,-1.97705 0.77625,-0.64485 2.32406,-1.68135 3.43958,-2.30333 1.11552,-0.62197 3.39743,-1.92996 5.07092,-2.90663 9.21731,-5.37936 14.92326,-8.03758 23.63691,-11.01172 3.36551,-1.1487 4.59227,-1.40533 4.27663,-0.89463 -0.16676,0.26983 0.16405,0.36266 0.99219,0.27842 0.36165,-0.0368 0.46302,0.15539 0.46302,0.87775 0,0.71157 0.13009,0.96613 0.56413,1.10389 0.44315,0.14065 0.4857,0.22871 0.19844,0.41065 -0.30326,0.19206 -0.29793,0.23205 0.0312,0.23418 0.76467,0.005 2.51797,-0.58017 2.98629,-0.99661 0.26001,-0.23122 0.67673,-0.44215 0.92604,-0.46874 0.24931,-0.0266 0.69142,-0.13789 0.98246,-0.24733 0.52917,-0.19898 0.52917,-0.19898 0,0.19379 -0.29104,0.21602 -2.3151,1.1146 -4.49791,1.99685 -13.17922,5.32675 -22.9547,10.31855 -30.10263,15.37176 -3.59501,2.54148 -9.05061,7.82678 -11.84545,11.47571 -0.30722,0.4011 -0.77696,0.84615 -1.04386,0.98899 -0.43796,0.23439 -0.51982,0.0729 -0.83938,-1.65532 z"
         id="path22" /><path
         style="fill:#1d3630"
         d="m -173.50067,175.00433 c -1.71979,-0.12628 -1.71979,-0.12628 0.0876,-0.63416 2.19128,-0.61576 5.25256,-2.25715 6.87778,-3.68773 0.65897,-0.58005 1.88057,-1.97488 2.71466,-3.09964 0.8341,-1.12475 1.60301,-2.14443 1.70868,-2.26596 0.10567,-0.12152 0.5858,-0.0174 1.06697,0.23145 1.49994,0.77565 2.35736,0.91831 7.10339,1.18194 2.53558,0.14085 5.00981,0.33106 5.4983,0.4227 0.79262,0.1487 0.83901,0.20256 0.43128,0.50071 -0.41092,0.30047 -0.34934,0.38894 0.61213,0.87945 0.58797,0.29996 2.48652,0.96384 4.219,1.47529 1.73249,0.51145 3.74857,1.13886 4.48018,1.39424 1.33021,0.46432 1.33021,0.46432 -1.13765,1.32383 -2.74358,0.95554 -4.4114,1.22284 -11.17275,1.79059 -4.73137,0.3973 -19.38973,0.71491 -22.48959,0.48729 z m -23.54791,-6.52893 c -1.67349,-0.62096 -3.80015,-1.45377 -4.72591,-1.85067 -3.85297,-1.65191 -13.72409,-8.05404 -18.82201,-12.20743 -2.88104,-2.34725 -8.59155,-8.74524 -11.80234,-13.22319 -3.05567,-4.26161 -8.30599,-12.22019 -8.30599,-12.59046 0,-0.31506 0.064,-0.31016 2.38125,0.18256 2.36017,0.50184 5.9847,0.37386 7.46598,-0.26362 0.54103,-0.23283 1.09526,-0.42333 1.23163,-0.42333 0.13637,0 0.56057,0.53346 0.94268,1.18548 0.74817,1.27666 3.80315,5.71425 5.55419,8.06789 5.77416,7.76127 14.04235,14.59343 22.73479,18.78617 2.81656,1.35856 2.81656,1.35856 2.81656,2.54842 0,2.2815 0.79441,4.90175 2.41787,7.97505 0.8648,1.63711 1.47823,2.96883 1.36318,2.95937 -0.11504,-0.009 -1.57839,-0.52527 -3.25188,-1.14624 z m 20.78109,0.91714 c -0.0837,-0.13547 -0.0312,-0.32109 0.11667,-0.41249 0.1479,-0.0914 0.27252,-0.0103 0.27695,0.18015 0.005,0.23588 0.0863,0.21248 0.25349,-0.0734 0.16606,-0.28396 0.65551,-0.42786 1.51331,-0.44494 1.26786,-0.0252 1.26786,-0.0252 -0.0551,0.46534 -1.54442,0.57272 -1.8981,0.62065 -2.10536,0.2853 z m 38.04276,-2.94045 c -1.42964,-0.28268 -2.5789,-0.88708 -4.05973,-2.13504 -1.52914,-1.28868 -3.1835,-1.66544 -9.1235,-2.0778 -5.28395,-0.36681 -9.15233,-0.73851 -9.30822,-0.8944 -0.061,-0.061 0.1467,-0.86895 0.46157,-1.79544 0.48927,-1.43966 0.55183,-2.06915 0.43033,-4.33036 -0.17409,-3.23982 -0.75356,-5.0827 -2.84888,-9.06016 -0.8619,-1.63611 -1.56709,-3.1102 -1.56709,-3.27576 0,-0.49569 1.69106,-0.0816 3.79055,0.92823 2.38803,1.1486 6.06596,3.55619 8.51257,5.57238 4.037,3.32679 8.48849,5.82478 12.88404,7.22999 2.05889,0.6582 11.8683,0.6599 13.97117,0.002 2.98251,-0.93251 9.87701,-5.15868 14.81667,-9.08227 2.74908,-2.18361 8.21349,-8.01044 10.956487,-11.68316 4.24105,-5.67854 8.22723,-12.77533 10.74427,-19.12854 2.11632,-5.34178 4.32748,-14.71109 4.65632,-19.730143 0.17457,-2.66452 0.17457,-2.66452 1.79156,-2.94815 2.3127,-0.40568 4.45291,-1.28013 6.4064,-2.61754 0.93391,-0.63937 1.74033,-1.1625 1.79205,-1.1625 0.25489,0 -0.20529,5.05192 -1.06045,11.641673 -0.86477,6.66381 -2.8139,13.83873 -5.01462,18.45924 -0.64232,1.34858 -1.16786,2.51113 -1.16786,2.58344 0,0.37014 -3.58973,7.43408 -4.76893,9.3844 -0.74787,1.23693 -1.60563,2.72521 -1.90612,3.30729 -0.3005,0.58208 -1.22437,1.9513 -2.05306,3.04271 -0.82868,1.0914 -1.80866,2.46492 -2.17772,3.05226 -1.63602,2.60361 -8.247497,9.80827 -11.451457,12.47888 -4.39527,3.6636 -13.85,9.72577 -17.01126,10.90725 -1.54426,0.57715 -1.91,0.60991 -5.02708,0.45026 -3.11984,-0.15979 -3.51392,-0.12436 -5.47832,0.49247 -2.21618,0.69588 -4.90104,0.84092 -7.18969,0.38838 z m -43.46854,-4.46721 c -0.50411,-0.26842 -1.09942,-0.43079 -1.32292,-0.36083 -0.32557,0.10192 -0.33499,0.0762 -0.0474,-0.12926 0.25098,-0.17932 0.27088,-0.31092 0.0661,-0.43745 -0.16106,-0.0995 -0.29356,-0.0847 -0.29446,0.0331 -0.002,0.22357 -0.442,-0.59365 -0.98944,-1.83647 -0.46975,-1.06644 -0.009,-0.88811 0.59243,0.22952 0.60578,1.12487 1.85343,2.13847 3.24237,2.63413 0.81211,0.28982 0.87238,0.35437 0.33127,0.35479 -0.3638,2.9e-4 -1.07391,-0.21909 -1.57802,-0.4875 z m -3.20625,-5.42028 c 0.11683,-1.70203 0.20988,-1.59341 0.33959,0.39641 0.0446,0.68465 -0.0362,1.213 -0.18553,1.21327 -0.15954,2.8e-4 -0.2207,-0.63879 -0.15406,-1.60968 z m -7.3448,-0.18058 c -0.2971,-0.48059 -0.2971,-0.61121 0,-0.79951 0.2642,-0.16745 0.27045,-0.22611 0.0244,-0.22912 -0.18993,-0.002 -0.3195,-0.31381 -0.30435,-0.73166 0.0264,-0.7276 0.0264,-0.7276 0.23821,-0.0661 0.12383,0.38667 0.22279,0.48087 0.23821,0.22674 0.0145,-0.23909 0.21856,-0.50846 0.45346,-0.5986 0.28716,-0.11019 0.38637,-0.37691 0.30281,-0.81405 -0.0684,-0.35759 -0.0224,-0.58721 0.10207,-0.51026 0.1245,0.0769 0.22636,0.31146 0.22636,0.52116 0,0.2114 0.24853,0.38126 0.55785,0.38126 0.48024,0 0.53027,0.10123 0.35959,0.7276 -0.10905,0.40018 -0.28686,1.14432 -0.39513,1.65365 -0.10828,0.50932 -0.21056,0.76263 -0.2273,0.56291 -0.0245,-0.29258 -0.10753,-0.29913 -0.4273,-0.0337 -0.34177,0.28365 -0.40239,0.16875 -0.43661,-0.8275 -0.0397,-1.15687 -0.0397,-1.15687 -0.19844,-0.0226 -0.15075,1.0775 -0.17647,1.10553 -0.51381,0.55985 z m 61.60615,-2.80844 c -7.3191,-1.28569 -9.12891,-1.91775 -12.65211,-4.41855 -2.41346,-1.7131 -3.3351,-2.58335 -7.81306,-7.37736 -5.40837,-5.79007 -10.73141,-9.34665 -21.92762,-14.65087 -3.46411,-1.64113 -6.53394,-3.10994 -6.82185,-3.26402 -0.51181,-0.27392 -0.50806,-0.30344 0.1685,-1.32579 0.38058,-0.5751 0.79143,-0.98417 0.913,-0.90904 0.40436,0.24992 1.12764,-1.57835 1.28194,-3.24043 0.15224,-1.63995 0.15224,-1.63995 2.26891,-0.70662 1.16417,0.51333 3.60495,1.533 5.42396,2.26594 5.43204,2.18875 8.45767,3.83064 14.68437,7.96866 7.44703,4.949 12.25959,9.04731 18.12396,15.43411 2.1827,2.37714 4.32445,3.44623 9.41675,4.70051 2.02407,0.49855 3.30591,0.91607 2.84854,0.92783 -0.86675,0.0223 -1.15279,0.38519 -1.15279,1.46255 0,0.33228 -0.25,0.92197 -0.55556,1.31042 -0.38191,0.48552 -0.50438,0.91016 -0.39183,1.35859 0.16164,0.64402 0.1426,0.65187 -1.49496,0.6163 -0.91228,-0.0198 -1.95635,-0.0883 -2.32015,-0.15223 z m -53.01501,-1.20281 c -0.29441,-1.09849 -0.20942,-1.27569 0.52362,-1.0917 0.44911,0.11272 0.76596,0.05 0.90793,-0.17971 0.13975,-0.22611 0.86603,-0.37687 2.02212,-0.41973 0.99223,-0.0368 1.56593,-0.006 1.27488,0.0694 -1.79806,0.46313 -3.15563,1.02531 -3.81433,1.57958 -0.7552,0.63546 -0.7552,0.63546 -0.91422,0.0421 z m 0.22208,-4.82617 c -0.20971,-0.30599 -0.48282,-0.31992 -1.50972,-0.077 -0.91357,0.21611 -1.42675,0.21771 -1.8916,0.006 -0.35084,-0.15986 -0.91778,-0.21849 -1.25984,-0.13029 -0.54979,0.14177 -0.58089,0.11029 -0.26805,-0.27127 0.29869,-0.36429 0.27237,-0.65009 -0.16869,-1.83182 -1.85694,-4.97527 -2.29157,-14.572 -0.95371,-21.05815 0.51335,-2.48885 2.02027,-6.81103 3.14798,-9.02916 2.30758,-4.53885 9.26803,-11.73151 14.15698,-14.62929 1.23693,-0.733153 2.72521,-1.658793 3.30729,-2.056983 1.00086,-0.68466 3.14847,-1.85472 3.40427,-1.85472 0.0649,0 0.0561,0.23679 -0.0195,0.52619 -0.0757,0.28941 -0.2349,0.46606 -0.35382,0.39256 -0.70854,-0.4379 -0.76258,2.13395 -0.071,3.377913 0.2638,0.47449 0.56,0.92375 0.65822,0.99835 0.0982,0.0746 0.21728,0.48761 0.26459,0.9178 0.0794,0.72219 -0.10678,0.9126 -2.42754,2.48262 -2.79008,1.88752 -8.53033,7.53384 -9.71987,9.56082 -0.3843,0.65484 -0.99052,1.54692 -1.34716,1.98239 -1.18926,1.45211 -3.00351,6.33185 -3.64043,9.79157 -0.59116,3.21114 -0.76475,7.88639 -0.3884,10.46026 0.3257,2.22752 1.45004,6.22348 1.80872,6.4283 0.10465,0.0598 0.91385,0.0204 1.79824,-0.0875 0.88439,-0.10788 2.07501,-0.10618 2.64583,0.004 0.8265,0.15921 0.56764,0.20612 -1.27114,0.23035 -2.15294,0.0284 -2.33821,0.075 -2.74107,0.68985 -0.23764,0.36268 -0.36318,0.83893 -0.27899,1.05833 0.0842,0.2194 0.0377,0.39892 -0.1032,0.39892 -0.14095,0 -0.25628,0.33707 -0.25628,0.74904 0,0.93617 -1.18578,1.74222 -1.60471,1.09081 -0.18686,-0.29055 -0.29801,-0.30653 -0.45437,-0.0653 -0.15726,0.2426 -0.2685,0.22957 -0.46302,-0.0543 z m -55.15706,-23.79359 c -1.80326,-0.50006 -3.63061,-1.37186 -4.77446,-2.27781 -1.26,-0.99793 -3.45854,-4.23011 -4.16904,-6.12908 -1.69978,-4.54308 -0.59276,-9.69385 2.85514,-13.28448 1.86812,-1.94546 3.35787,-2.821283 6.0839,-3.576703 8.699,-2.41061 17.20237,3.668593 17.20237,12.298283 0,2.64145 -1.00496,5.11826 -3.35479,8.26816 -1.68112,2.25349 -3.365,3.44 -6.26241,4.41262 -2.23947,0.75177 -5.46813,0.87486 -7.58071,0.28901 z m 6.47054,-7.91733 c 1.51297,-0.82215 2.51908,-2.3871 2.70734,-4.21109 0.37981,-3.68001 -2.94684,-6.59749 -6.71642,-5.89031 -2.3096,0.43328 -4.06204,1.92754 -4.59893,3.92139 -0.4187,1.55495 0.21438,3.47 1.68281,5.09042 1.80217,1.98872 4.49181,2.41189 6.9252,1.08959 z m 42.0805,1.30703 c -6.52849,-2.8993 -11.21091,-6.17101 -15.50569,-10.83418 -1.47597,-1.60257 -4.24545,-5.32146 -4.89189,-6.568883 -0.36827,-0.71065 -0.36827,-0.71065 0.5658,-0.55907 0.76986,0.12493 1.10675,0.0132 1.91626,-0.63547 0.5402,-0.43288 1.27984,-0.94354 1.64364,-1.13482 0.3638,-0.19128 0.93938,-0.64428 1.27907,-1.00668 0.61761,-0.6589 0.61761,-0.6589 0.0918,-2.01027 -0.92305,-2.37253 -0.90513,-2.4496 0.12966,-0.55762 3.63647,6.648833 8.62725,11.569453 15.56505,15.346233 1.01864,0.55453 2.23903,1.29337 2.71197,1.64186 1.0407,0.76685 1.16153,1.66503 0.22401,1.66503 -0.52294,0 -0.80769,0.33818 -1.60316,1.90398 -0.64515,1.26992 -0.91632,2.10697 -0.81428,2.51354 0.17711,0.70563 -0.13074,0.76108 -1.31229,0.23635 z m 45.9052,-6.50595 c 0.65485,-0.10181 1.05294,-0.20299 0.88467,-0.22485 -0.17052,-0.0222 -0.2447,-0.27399 -0.16758,-0.5689 0.14362,-0.54919 -0.16142,-0.70052 -0.59803,-0.29668 -0.14557,0.13465 -0.69674,0.0906 -1.30968,-0.10455 -0.58209,-0.18537 -0.84998,-0.34952 -0.59532,-0.36478 0.25467,-0.0153 0.46302,-0.22256 0.46302,-0.46067 0,-0.37978 -0.30946,-0.41674 -2.52081,-0.30107 -2.13127,0.11148 -2.55933,0.0659 -2.77008,-0.29468 -0.13709,-0.23459 -0.25288,-0.28744 -0.25731,-0.11744 -0.004,0.17 -0.0883,0.51809 -0.18627,0.77354 -0.14398,0.37519 -0.0804,0.42718 0.33073,0.27054 0.37032,-0.14108 0.43009,-0.11437 0.21944,0.0981 -0.34022,0.34309 -3.28236,-0.64631 -3.28236,-1.10381 0,-0.1518 0.30308,-0.0774 0.67352,0.16531 0.96727,0.63378 1.56174,0.3461 1.64302,-0.79511 0.082,-1.15147 0.57327,-1.69327 1.56716,-1.72838 0.74651,-0.0264 0.74651,-0.0264 0.0851,-0.2363 -0.50714,-0.16094 -0.36845,-0.20109 0.59441,-0.17206 0.69072,0.0208 1.25627,0.12715 1.25677,0.2363 4.9e-4,0.10914 0.18652,0.19843 0.41339,0.19843 0.22687,0 0.33891,-0.11906 0.24897,-0.26458 -0.0976,-0.15799 0.18919,-0.25222 0.71199,-0.23389 0.48153,0.0169 0.66083,0.0864 0.39844,0.1544 -0.36719,0.0952 -0.40881,0.20595 -0.18073,0.48077 0.24607,0.2965 0.37433,0.28153 0.7562,-0.0883 0.30174,-0.29218 0.36389,-0.51216 0.18074,-0.6397 -0.15353,-0.10691 0.0185,-0.19633 0.38232,-0.19872 2.54893,-0.0167 10.67811,-2.85119 15.24738,-5.316503 2.1039,-1.13514 2.86846,-1.39362 4.54584,-1.53686 0.19049,-0.0163 0.26945,-0.1784 0.17547,-0.3603 -0.094,-0.1819 0.0834,-0.0331 0.39419,0.33073 0.48059,0.56258 0.5479,0.90864 0.4503,2.315103 -0.12282,1.76992 0.19717,2.18103 0.6613,0.84962 0.24756,-0.71015 0.31754,-0.75306 0.59945,-0.36753 0.29347,0.40135 0.35349,0.40217 0.74539,0.0103 0.23442,-0.23442 0.67284,-0.42621 0.97428,-0.42621 0.30143,0 0.5183,-0.14176 0.48192,-0.31502 -0.0364,-0.173263 0.17198,-0.358253 0.46302,-0.411103 0.44546,-0.0809 0.46638,-0.0486 0.13229,0.20413 -0.31289,0.236673 -0.2289,0.263603 0.39688,0.12723 0.79375,-0.17297 0.79375,-0.17297 -0.0981,0.751783 -0.49052,0.50861 -1.0263,0.89399 -1.19062,0.8564 -0.16432,-0.0376 -0.19979,-0.0152 -0.0788,0.0498 0.12097,0.065 -0.10561,0.45796 -0.50351,0.87327 -0.3979,0.41532 -0.84269,0.68143 -0.98843,0.59136 -0.14573,-0.0901 -0.18659,-0.0369 -0.0908,0.11807 0.22275,0.36043 -1.94777,1.97196 -2.41467,1.79279 -0.19309,-0.0741 -0.28395,-0.0261 -0.20193,0.10661 0.20749,0.33571 -0.89075,1.06324 -3.82582,2.53442 -2.99059,1.49901 -4.6368,2.09181 -7.73626,2.78584 -2.55854,0.57291 -4.05396,0.64938 -5.07881,0.25973 -0.44097,-0.16765 -0.67868,-0.16765 -0.67868,0 0,0.14192 -0.56555,0.24016 -1.25677,0.2183 -1.25677,-0.0397 -1.25677,-0.0397 -0.0661,-0.22484 z m -13.33449,-4.64254 c -0.81221,-0.66162 -1.60948,-1.4653 -1.77169,-1.78594 -0.24978,-0.49371 -0.1793,-0.47009 0.46031,0.15428 0.41538,0.4055 1.29103,1.20768 1.94587,1.78264 1.63384,1.43452 1.17902,1.32629 -0.63449,-0.15098 z m -91.67428,-7.977513 c -0.7314,-3.59438 -0.58126,-22.12491 0.18546,-22.89164 0.15631,-0.15631 0.5622,0.18586 1.08651,0.91596 1.46766,2.04368 3.64684,3.65557 6.18152,4.57235 1.64383,0.59456 1.64383,0.59456 1.8226,5.58553 0.0983,2.74503 0.29433,5.64582 0.43557,6.44618 0.14125,0.80036 0.2111,1.53077 0.15522,1.62312 -0.0559,0.0924 -0.60989,0.24413 -1.23114,0.33729 -2.00243,0.30028 -5.2978,2.13832 -7.50277,4.18478 -0.82059,0.7616 -0.82059,0.7616 -1.13297,-0.77357 z m 89.92752,-8.93969 c 0,-0.0707 0.71438,-0.48909 1.5875,-0.92985 1.27102,-0.6416 1.5875,-0.71917 1.5875,-0.38908 0,0.22675 -0.14883,0.39295 -0.33073,0.36933 -0.71821,-0.0933 -0.99236,0.0396 -0.99624,0.48277 -0.003,0.35188 -0.0574,0.37894 -0.22613,0.11275 -0.1803,-0.28438 -0.30043,-0.27193 -0.63851,0.0661 -0.39405,0.39406 -0.98339,0.56662 -0.98339,0.28794 z m 3.57738,-1.71469 c -0.0869,-0.14061 0.58845,-0.63248 1.50079,-1.09303 0.91234,-0.46055 1.50732,-0.65483 1.32217,-0.43174 -0.18514,0.22309 -0.63427,0.48032 -0.99805,0.57162 -0.36379,0.0913 -0.59,0.28158 -0.5027,0.42283 0.0873,0.14126 -0.15298,0.25683 -0.53396,0.25683 -0.39442,0 -0.62228,0.11393 -0.52917,0.26458 0.0899,0.14552 0.10399,0.26459 0.0312,0.26459 -0.0728,0 -0.2034,-0.11506 -0.29031,-0.25568 z m 3.39377,-1.87234 c 0.0288,-0.15904 0.94256,-0.76244 2.03067,-1.34089 1.08812,-0.57846 1.74726,-0.89779 1.46478,-0.70964 -0.28249,0.18815 -0.77226,0.58021 -1.08838,0.87126 -0.82645,0.76089 -1.69038,1.23107 -1.95805,1.06564 -0.12717,-0.0786 -0.29199,-0.0201 -0.36627,0.12995 -0.0848,0.1714 -0.1156,0.16534 -0.0827,-0.0163 z m 60.755697,-25.80257 c -2.5014,-6.57918 -6.32122,-13.06583 -10.618567,-18.032 -2.33916,-2.70321 -2.33916,-2.70321 -1.43759,-4.36562 0.88812,-1.6376 2.57796,-6.51294 2.94663,-8.50125 0.18875,-1.01799 0.18875,-1.01799 2.204987,1.16878 1.10893,1.20272 2.53686,2.85144 3.1732,3.66383 1.38203,1.7644 6.02288,8.77475 7.89641,11.9281 2.49311,4.19619 6.95391,13.47087 6.95391,14.45823 0,0.0872 -0.19689,-0.005 -0.43754,-0.20448 -0.6646,-0.55157 -7.77113,-0.48581 -9.30209,0.0861 -1.13191,0.42283 -1.14251,0.42128 -1.37935,-0.20167 z M -229.59233,47.198887 c -0.74612,-0.3596 -1.7357,-0.44755 -5.09329,-0.45266 -2.70924,-0.004 -4.16723,-0.10279 -4.16719,-0.28199 1.9e-4,-0.87973 5.99433,-9.53664 9.42356,-13.60979 2.75867,-3.27668 8.78231,-9.07293 12.14004,-11.68177 3.26038,-2.5332 8.37929,-6.00251 10.98021,-7.44178 5.09157,-2.81751 15.26936,-6.8164596 20.26433,-7.9620496 1.6112,-0.36952 1.6112,-0.36952 1.24024,0.70721 -0.64698,1.87786 -0.70773,5.0909896 -0.13743,7.2685996 0.27797,1.06137 0.43587,1.97177 0.3509,2.02309 -0.085,0.0513 -1.44284,0.40306 -3.01749,0.78162 -9.43146,2.26741 -21.07782,8.88894 -28.77077,16.35759 -5.18212,5.03102 -10.59173,11.63918 -11.37814,13.89907 -0.3394,0.97532 -0.53817,1.01788 -1.83497,0.39286 z m 58.46995,-24.88295 c -4.67943,-1.54941 -7.9842,-5.32682 -8.73084,-9.97947 -1.28752,-8.0232096 4.64144,-14.6551596 13.11755,-14.6728796 3.40769,-0.007 5.95786,1.0879 8.74368,3.75448 5.0147,4.80006 4.70521,12.3015496 -0.7412,17.9655596 -2.52299,2.62379 -3.86794,3.18023 -8.0206,3.31834 -2.30209,0.0766 -3.2152,-0.004 -4.36859,-0.38603 z m 5.85569,-7.07272 c 4.14658,-1.463 4.60111,-7.4228196 0.71722,-9.4042296 -1.57096,-0.80144 -3.9659,-0.63466 -5.50415,0.3833 -3.06642,2.02926 -2.61651,7.0680296 0.78629,8.8060296 1.40457,0.71739 2.42157,0.77202 4.00064,0.2149 z m 15.16472,-5.8771396 c -0.0143,-1.73614 -0.40733,-3.74092 -1.07377,-5.47763 -0.13114,-0.34173 0.0463,-0.38157 1.12901,-0.2535 3.49241,0.41309 8.35035,1.4118 8.24367,1.69476 -0.0439,0.11658 -1.8822,1.40463 -4.08501,2.86235 -2.20282,1.45771 -4.04829,2.7792496 -4.10105,2.9367496 -0.0528,0.15751 -0.10354,-0.63573 -0.11285,-1.7627296 z"
         id="path21" /></g></g></svg>
